<mxfile host="app.diagrams.net" modified="2022-09-05T05:55:37.207Z" agent="5.0 (Windows NT 10.0; Win64; x64) AppleWebKit/537.36 (KHTML, like Gecko) Chrome/104.0.5112.102 Safari/537.36 OPR/90.0.4480.54" etag="kwnG1HVdbK8gXRYXxgeP" version="20.2.8" type="github" pages="2">
  <diagram id="4IM-N1hj2kw1kHrJ0OoO" name="Social">
    <mxGraphModel dx="1382" dy="795" grid="1" gridSize="10" guides="1" tooltips="1" connect="1" arrows="1" fold="1" page="1" pageScale="1" pageWidth="827" pageHeight="1169" math="0" shadow="0">
      <root>
        <mxCell id="0" />
        <mxCell id="1" parent="0" />
        <mxCell id="4ZES_xWtsgY21SXxbYfZ-1" value="V. Independiente" style="rounded=0;whiteSpace=wrap;html=1;fillColor=#f5f5f5;strokeColor=#666666;fontColor=#333333;" vertex="1" parent="1">
          <mxGeometry x="100" y="290" width="120" height="30" as="geometry" />
        </mxCell>
        <mxCell id="4ZES_xWtsgY21SXxbYfZ-2" value="V. Dependiente" style="rounded=0;whiteSpace=wrap;html=1;fillColor=#f8cecc;strokeColor=#b85450;" vertex="1" parent="1">
          <mxGeometry x="470" y="330" width="120" height="30" as="geometry" />
        </mxCell>
        <mxCell id="4ZES_xWtsgY21SXxbYfZ-3" value="V. Interviniente" style="rounded=0;whiteSpace=wrap;html=1;fillColor=#f5f5f5;strokeColor=#666666;fontColor=#333333;" vertex="1" parent="1">
          <mxGeometry x="380" y="60" width="120" height="30" as="geometry" />
        </mxCell>
        <mxCell id="4ZES_xWtsgY21SXxbYfZ-4" value="" style="endArrow=classic;html=1;rounded=0;strokeWidth=2;fillColor=#ffe6cc;strokeColor=#d79b00;" edge="1" parent="1">
          <mxGeometry width="50" height="50" relative="1" as="geometry">
            <mxPoint x="240" y="220" as="sourcePoint" />
            <mxPoint x="530" y="220" as="targetPoint" />
          </mxGeometry>
        </mxCell>
        <mxCell id="4ZES_xWtsgY21SXxbYfZ-5" value="&lt;span style=&quot;font-size: 11pt; line-height: 107%; font-family: Calibri, sans-serif;&quot;&gt;Aplicativo móvil&lt;/span&gt;" style="text;html=1;strokeColor=none;fillColor=none;align=center;verticalAlign=middle;whiteSpace=wrap;rounded=0;" vertex="1" parent="1">
          <mxGeometry x="130" y="210" width="60" height="30" as="geometry" />
        </mxCell>
        <mxCell id="4ZES_xWtsgY21SXxbYfZ-6" value="Metodología MVC" style="rounded=0;whiteSpace=wrap;html=1;fillColor=#fff2cc;strokeColor=#d6b656;" vertex="1" parent="1">
          <mxGeometry x="350" y="120" width="100" height="30" as="geometry" />
        </mxCell>
        <mxCell id="4ZES_xWtsgY21SXxbYfZ-7" value="V. Independiente" style="rounded=0;whiteSpace=wrap;html=1;fillColor=#f5f5f5;strokeColor=#666666;fontColor=#333333;" vertex="1" parent="1">
          <mxGeometry x="100" y="665" width="120" height="30" as="geometry" />
        </mxCell>
        <mxCell id="4ZES_xWtsgY21SXxbYfZ-8" value="V. Dependiente" style="rounded=0;whiteSpace=wrap;html=1;fillColor=#f8cecc;strokeColor=#b85450;" vertex="1" parent="1">
          <mxGeometry x="487.5" y="730" width="120" height="30" as="geometry" />
        </mxCell>
        <mxCell id="4ZES_xWtsgY21SXxbYfZ-9" value="V. Interviniente" style="rounded=0;whiteSpace=wrap;html=1;fillColor=#f5f5f5;strokeColor=#666666;fontColor=#333333;" vertex="1" parent="1">
          <mxGeometry x="397.5" y="460" width="120" height="30" as="geometry" />
        </mxCell>
        <mxCell id="4ZES_xWtsgY21SXxbYfZ-10" value="" style="endArrow=classic;html=1;rounded=0;strokeWidth=2;fillColor=#ffe6cc;strokeColor=#d79b00;" edge="1" parent="1">
          <mxGeometry width="50" height="50" relative="1" as="geometry">
            <mxPoint x="257.5" y="620" as="sourcePoint" />
            <mxPoint x="547.5" y="620" as="targetPoint" />
          </mxGeometry>
        </mxCell>
        <mxCell id="4ZES_xWtsgY21SXxbYfZ-11" value="&lt;span style=&quot;font-size: 11pt; line-height: 107%; font-family: Calibri, sans-serif;&quot;&gt;Aplicativo móvil&lt;/span&gt;" style="text;html=1;strokeColor=none;fillColor=none;align=center;verticalAlign=middle;whiteSpace=wrap;rounded=0;" vertex="1" parent="1">
          <mxGeometry x="147.5" y="610" width="60" height="30" as="geometry" />
        </mxCell>
        <mxCell id="4ZES_xWtsgY21SXxbYfZ-12" value="Metodología MVC" style="rounded=0;whiteSpace=wrap;html=1;fillColor=#fff2cc;strokeColor=#d6b656;" vertex="1" parent="1">
          <mxGeometry x="367.5" y="520" width="100" height="30" as="geometry" />
        </mxCell>
        <mxCell id="CZMkh9yGvlzumAx_uHMP-1" value="&lt;span style=&quot;font-size: 11pt; line-height: 107%; font-family: Calibri, sans-serif;&quot;&gt;Proceso de búsqueda de transporte seguro&lt;/span&gt;" style="rounded=0;whiteSpace=wrap;html=1;fillColor=#f8cecc;strokeColor=#b85450;" vertex="1" parent="1">
          <mxGeometry x="490" y="250" width="120" height="60" as="geometry" />
        </mxCell>
        <mxCell id="CZMkh9yGvlzumAx_uHMP-3" value="&lt;span style=&quot;font-size: 11pt; line-height: 107%; font-family: Calibri, sans-serif;&quot;&gt;Proceso de reserva de alojamiento para estudiantes universitarios&lt;/span&gt;" style="rounded=0;whiteSpace=wrap;html=1;fillColor=#f8cecc;strokeColor=#b85450;" vertex="1" parent="1">
          <mxGeometry x="507.5" y="650" width="140" height="60" as="geometry" />
        </mxCell>
        <mxCell id="9TKklYcPQpPgtfztdnDr-1" value="" style="shape=image;verticalLabelPosition=bottom;labelBackgroundColor=default;verticalAlign=top;aspect=fixed;imageAspect=0;image=data:image/jpeg,/9j/4AAQSkZJRgABAQAAAQABAAD/2wCEAAkGBxMSEhUSExIWFRUXGBgaFhgXGRcXFxcYGBUYFhgYFxgYHSggHholHxoWIjEhJyorLi4uGB8zODMtNygtLisBCgoKDg0OGxAQGi0lICUtLS0vLS0tLS0tLS0tLS0tLy0tLS0rLS0tLS4tLS0tLS0tLS0tLS0tLS0tLS0tLS0tLf/AABEIAKgBKwMBIgACEQEDEQH/xAAcAAACAwEBAQEAAAAAAAAAAAAABAMFBgIBBwj/xABJEAABAwIDAwgGCAMFBwUAAAABAAIRAwQSITEFQVEGEyJhcYGRoRQVMlLR4QdCU2KSscHwcqLSI4KTssIWQ1Rzo+LxJDNEY4T/xAAbAQACAwEBAQAAAAAAAAAAAAAAAQIDBAUGB//EADsRAAEDAQQHBQYFAwUAAAAAAAEAAhEDBCExQRJRYXGRobEFE4HR8BQiUsHh8RUyQlOSFiPSBjNDYqL/2gAMAwEAAhEDEQA/APpaEIW9cVC6psLjAEkrlN21ZjDigk9yTiQLlJoBN5gKa12dmcY7BOq7utmzmyBxBmF160b7p8vij1o33T5fFUTUmVsAs+joz5qrqMLSQdQuU/d3THiIIPGB8UgVc0ki8LI9oB90yEIQhSUEIQuqbJMITXKE0yiB1qOpQjMJaQUiwgKFCEJqCEIQhCEIQhCEIQhCEIQhCF2ykSuWgbz5JnnwkSclNoBxK5fb8FA5pGqZ58LipUaQognNNzWnAqBCChTVaEIUttRL3YRlxPUgmBKYBJgKJCu7W0DJ3njG5c3Fg12YyPVoqu+bK0eyv0Zz1fVUyF3WpFpgiFwrVnIi4oQhCEkIXhKA4HehC9QvMY4heoQhCr7raIZVwEZYcUznm6IjzT4M5oQvUIQhCEIQhCF0Hkb1yhCak508Uc6eKWuXkMcRqAT5Lqi/E0HiiAiTrXZKEIQkhCEIQhCjqVYIGE5793efkuwhC9QhCEIQhCEIQhCEIQhCEIQvCV6hCExSuy3QAdyXXhKRAOKkHEYJ31m/9j5r31m/q8PmkQ8cQjGOIUe7bqT76p8RTFxeF3tAdWvxUCXu7gN7V5ZVy8Encf0Uw2BcoOeSb8UyhCEIUFWoCCJVJtTarqL2MZSNR7wYAdh013J70lqqtsmK9rV+ric0/wB9uX6oKG3m/b0SVxUvKwI5xtvwwjE6d098b1Lsbau0BUbTrtovp76zSWmP4d7u4BXNxaiMbDlvHeJSFzcsosNSoYY0S4xnA4da5bu06bmgUQXVCSAw3EEY6Y/SBiTmMMVO83QI9YKPbtcOr0yOA1jhU3Yv079yuti18TMO9p6tDpv7Vn9pV8b7d+HBiYx2AnNuJrzB6Qz7u86Kz2JWAeQTq3jwI+8etdGkHhjQ8gui8i4TsGSrOKvkLxjwdEKaa4rGAlucPFMXB6KWTUSnWHIL1J0nmRmm5STCqtq1XO6LSREg8D4JEc6MhUPiVJtFoNQ9EnsPzS+AfZu8fmmktHa1sYmNMvJSpLZHsaRnp3BOpKQQhCEIQhCEIQ4qKpVAMeK8ujklyZQo4J0Fermkch2L1xyQpSuK7oGSW5w8UFxO9cpqMp4L1ctK6SU1XXt9BhokDOZ7RC7tL/EYcA3hnqeCqarjiOZ14dbfn5r2zecbZJ1Go7E1C9aNcVXCCJXrnZGCk0kyUAqOq+ASpFDc+yf3vTCgcFW1sbjqArXYjSGuxGc/0VMR+4/7la7FeA108eHV2lSKizFWqFHzzeKkUFcsll1adfuqxvrIVqHNkxIBaeDhmCsd61q+95KYbfuIjF/KPgsX4hS1HgPNeg/pm2AyHM4u/wAVc7M2p7VOocNQZPB0P3gqa5qi/rNoUyXW7HA13/VqEQRRbxHH9zX7Qqc+MNTpDTQAwd0gaJiz2g+k0NZha1ugDRAVQtNnDy/RvMAmBJAwBM/dT/py1i8Fv8jA/wDPlC0e3XzcU92m/wC6/diH5d+5MbOd0xnuO+f9RWWuNq1HuD3FsjTKBv8AiVNR23UaZhp7Qfir/b6W3h9VSf8ATVtHwfyPzaFvKFSCurk6LEU+UD/rSOw/pKepbTc72XkjvnyV9KtTq/lPmuZa+zrVZBNZkDXcRxGG4wdi0iFnm31SYxHzXjb6p7x81dCw6S0SFRWd49zwC4xIV6ghAMqsvPaPt/3ZhQZf/Z5qe8dDj0y3un9FBzg+0Ph8kk1d7I9jfrv10GqdVdsyqAzec9e4KwY6RKFIFVt3tEtcQ3MZaAnzCh9au4H8JVNe7aYxxYMTnDIgNJz70lc7SvID6dtiaDm0kB5HED9IS0gpBjvvctba7QLpnzBCY9IPUs3yf2tz8k0qlMtMHnG4c40HFaBEjBQMi4rp9QkZrlCE0kIWUv8AbFUVHhr4aHEAQ3cY4Jf11X+08m/BKU1s0LGeuq/2nk34I9dV/tPJvwRKFs0xReA1YT11X+08m/BP7E2pUfVDXukEHcBmBO4dRRKAnqjCXExv49bfgfBe21Mhwy8+oLir7R7eI4t/f/le2vtN+IO4JpKwuq+ATiwjecv1S1LaLJzqtj+IKe9p4hBEjgs/6ud9kfBCFoPWFL7Vn4go7i+pFp/tGfiCo/Vzvsj4I9XO+yPgi9CYNdnvN8WJ3Z95TAM1GDP3m8OpUF9SNJoJpHMhoyjM6Lhmz7h5A5kUgTm4gGOuEF2Sbaea2zDMcEzz4WMtDtKg5tNzaNzTkAVMQpOa3i4dXUCtL6S3is9a1UaABrPDZ1kBS0SML9y+Z4l7iXKgvrnm2F8TwHWVww2bgvqr3hjS5xuF6YxrrGqzZm0XVSQWQB9YSRPAnirBNzS0wVXRrsrM06Zu4LvGgPXCAowrpKe2fYvrEtZhGENJxTniLhlA+75pita1bYY3hhYCAQ1xJMkAdAtG87l5sEONXCHYcTHT14XNj/MVbbVtWNpPcTLmtxCTqW9IZdy6NmoMcxrs9YPocl5TtTtC0UrTUokgsu90tBBBAMHA89ovUFtWa6C3Q/DtXdP9D+9VXbbuG2016QlkjGzRvSIGJvCZ0458U9QcDpoR1aro0qhPuux67V5m12ZrP7lKdAxji0mfdJzwMHMf9pCZ2eYeO0fmre+qAxB46KmtdU6rCsoUj36dMDLf/wCVzzh+0b4fNdEHKA3vXmB3Bnmkmn7I9HWetWNv7KqrephEHXq0TdK+aBEHyQmFm9mUQbquw5YsBHgVZV7YMdBB6juKrdqh1Ko24boBhqDfhJyd3FWhuy+mDiad4dOREb1z7UbYx2lZwHDDRN0Em584xf7zcwLs1YdE3n1GShfXp0y0OMYnNa0alznGAAP3Ald1dpOaS3m9DG/TduWe2dV9KuxX1oW2IUyNKlZwhzhxAGSur2pifInQ743Kyx2QUQXOOk935nZnwyaP0tF0b1GqYgclJ61f9n5n4I9av+z8z8EnOW/2ePX+80OOuujd4W2FXpK7tbSg6mKj6LATJOU/WIUnoNtkOap9LToqJlxT5kMNRgdwLgPrSvBWpyw87T6MT0xxlRVgwTDtn2wIaaTJOnRCKWz7Z0xSpmNeiFHVuaZqNdztOBH1wiyuabMU1aef3x1pJr30O1gnmmQDHsro2FFsOZTYDuIABzCVD2YSOdpzIPtjcCm23LC1rW1GuIAyDgdB1JpFVj6RknLX+n4HyXtvSIcNO7sAUhXrNR2pqCbcvFR7R2lcNqlrGANmGlzXdKBJgz1FLDa124S2mHDiGOI/NUm00m1BSLhpHKb78PE6lYKNQs7wNMa1pULN+s737H+R3xR6zvfsf5HfFXKpO8qWnmMQ+o9jvAx+quK1AVKTg0+00iddRqstXvrt7Sx1CQ4EHoO0PeobPbNzQwUizQQ0OaZc0bte5ZLXTrOaDRdDgZHwmJ912w8jByutbBbGrps3Kxs9mNpnEXYo0JEAcTElV9C7rVhzlE1HUyThIEAgOLchPEFR7d2gazvRbczUqCKjt1FhjEXfe3R19ivrC3bSpspt0a0AdwVFnsMuNW0Q55xuBDR8LQQbhmcSb5UyQB64+OSxUdS8GzHXL20QMnSXngBEHzVUeUVCdXRxw5fFa7kLcsqmo9jsQaGjQjWTv7AuNa6lSz0HVQLxhvJAHVfRq9poVaZY14JOQIk33iMSCLjsKKrWW9KtQewve5zXUnQGhrQ1oM8ScJExGvWqeFpOXlxSp0qD3mHF9RoyJloa127gT/MsZ66oe+fwu+ClZnVK1FlQjEDAKNmtFmpU9EvAM3guG7M4XTxT8ISHrqh75/C74I9dUPfP4XfBX92/4StHttm/cb/IeaccTlA78RaR2ELoTHtPz1GN7xnr7RSHrqj75/C74I9dUPfP4XfBSDarcARxVL61hqGXupnfon681Y3jn1KZouqOwEARDNxBGjeoLnZ5NFoax7st8/A5KuqbdoATjJ6g0yfFLM5SMnNjwOOTvKEyKzsZVTH9m0j7ugJuMRHjF3HzW75PNdWc/MDA3EQdSJziOH6q55oL5xZ8pKVN7X9OAQSQBpOe/hK+pOtwBiLwBrJyH5ro2Wq7RIqTO1eW7Zs1Hvg+zaMEXhsAAjdr3BV903IAcVINnVnYYpO090ganeckheVufdzNAOrPyMUzhj7z3gwxvaZPA6KwobMp7NaLu7rOfV9mnSbUfzeMg9FuN3TMTLnQABMCFofVjBculZtL81ytKexax+qB2uH6SvamzGs/9y4pM7XR+cL53yh2y+4eGuqh1SoQIDzzVNu5rRMGBmXHM9UgC0oW1Gm0NY1hMZuhpJ6yeKiHPJVhpUmiYJWjriy+ttC27MbD/rWevdhWDzh9bU20iZdTa4AOjdOPILoRuVFyub0KbjufB7HNM/km8OiSU6fd6UARO0ra2wsGMDGX9u1oEAAtAA6pcvHW1F7hzN5bVDnDRUZiM8BKzvI6oKlKHnOkcJHUPZJ6oy7lZ3hFXo4QW9YBntlNrnYg8lB9OneC3mp69i9hh4wmIzHmOIURpa5jduG5FOu63YS2oBSaJdTq9KjAzMTnTy3tMDgVPsPaNpfEihVa2qNaRcHz103gw4dWo3gKYqAfmVDrM43sM9fIq4tquGgHROv+YqQXmbBHtRPeYXjrcinzZyI3x1zosNy05S3FrVaylTZhY1pL3AkEkkwACIG5RdVaFNlnqG6FvalxDwyNf1RaXOPFlEfNUPJTa5vaTbggNe0lr2jTE3ORO4ggq7taWCc5n5o7xqO4qalwL84S7CMiB4psDG0HjB8kgLTols6kHThKcpPgAcAAn3jdaXcv1KjubkM+rMzvhUG3eWTLchraWOpkS3FAA6zBzPBW/KgtoUH13O9kZCPac4w1uvH9V8ht6T7itBMueZcfzP76lXVrhokFXWeyOe6HDcNZX0Pa3KSnd27RQrOtqpLSS5p6AmHgVIjMaEEdyutgWQo2rnGoeeL4wlxeXCYxHGSQCMxn+aoaNIMa1ogAQBw4LT2FnjYDjzGRy+a5lkrMtFc1HNAOsASY1mJmIMeS7XaNgdY7OKdM6UzM5TqyiRHnK89Kfx8gkuVe3nWjWFrWuL8WpMiIzA36q1OzIzx6dXzXzTlDtN1e550ZBhAptcNA0z0mneTJI7ty7TXA4LzhpFpGktdSuL5zA976NEETBYXOE6AidepU11eV69yy0qVmkOaXYuaaC2A4iM5+rx3qrrcorlxlzmH+78EizaFVtwLno42iBl0Ywluk9ZVZD1ezux6OK2FrybdQZDK9No1OKiwknrJMlRuo1h/vqJ//AD/9yoncpK5zLWH8X9SP9oqv2bPE/FOHDBIimTJhQWPJ2m6k0uLsTmgyDkJEiBvV/wDRfQLW3AnIVAP7zQQ7yLVnadC7Y3m2OGHQEjMDqyTtht92zWNp8yKjXucXEuLXYoHUcojwXD7Ws9WvZXU6QkkjMDObpuyXYstVrKgLjr6LY8q7e3eKYuKbnmHlmGRhkgHQ74Gvur50LJtQA07d7Rn7RJkT0TOWesjdkrxvKN125z+bLcMANxFwAzz0GplRWVVwxtwHJ58HdMf5ijs+wmjQa15dMCQXSAc4vIHrBWPtxbUlrWkCcRjvVR6nd9kPP4r31M77L9+Kv+ed7hXnPO9wrd3A+I8U/wATP7TP4/VUPqd32X78Uep3fZfvxVvfXrmU3vDM2tJz003qq2HZX9RvPCpDDmDUMtf/AAgTA8Nyi+m1uLjxU2W577hSZ/H6qtudmOFZjS3AHEBp3aiT5q22pyfpspOc0ulonMyDGqb2nbGs0DCWuaZa7gUpWt7qoMFRwwb4GbvJW6EXLC6rpkuN08FW7H2NUcWPc0GniBMn2mg5iBnnmF9e2ey8vGF1NloWA4SKrS7pAA5AgjeFibcloawMIAAA6gvrHIJlNtq0NeHOcS54BBLTpEbsgE3NuhFKoWvmAdhEhXGzbBtKm1uFgMDGWNDGudGZwtTL7dp1APbmpl8T5d/SjWfVdb2DsDGnCawAL6hmDgmQG7piTqI3xQcZX1z1XROKaTDnva07hxCgdsC0PtW9Hvp0/gvz36VtQf23P3XbztSfDFPktnyB+kuo6q22vnB2MhrK0AEOJgCpEAgnLFkRvnUCF9LdyWsT/wDGof4bP0CiqcjrB2RtqUdkfkVaoUoSVHT5FWILgKWHT2X1GyN04XDfI7l63kXabudHZWrj/Wrc+0OsHyI+JUiEQCqC65B2tRjmOfWLXAhw515kEQRmSqe3+iDZ9M4qT69M6jDV0O4iQc+tbdcvcACSQABJJ0AGpKIQIC8t9nYWNY55qYRGJ8FzutxAAnuXy3l7yReypXuHV2up13AU6ZBxMhmcZxAjdxHfVcrvpOua1Q0bJxpUgYD2j+0qdYMS0HcBn17lX2TqxYDXq1KjySTzj3vLZ3DETG5UV3Q1dDs2zd/Xg4ASd2EeK130P7PL7a4YXYXsr8MQg0mZxI4cVqL7Z12yebdQqxu6THeBcR5rL/R5yhpULn0aoC03Mc2/6uNkjAeBIIg8RG8L6hWtGuOIzPUYntU6dQuaCstpotp1XMaZANx2L5lW5Q12OLXU2NcDBBDgQesSo/8Aaar7jPB39SvPpE2WGinXb/A7r1LSezpDwWIV4vWMyCpeUty69pCk/C2HBwLQdQC3ME5iHFZPZNelQe4GpBkgu5snT3TJy7QtOshtnZ3NvcQcjJAOp4we9VVqQqNg+uRWizWg0Xhwicpn5ELX7KvaYdzjC2s4DIvOLD1hogNPcraw2sWuJybO7PD2HOfNfLqNtVlha10u9gicyeBC+gtsnMptxPxOAGI8TvhUhlNrWswORzn1lgr31a1V7quIzGUddszOaZ2ryquBSD2syxDpMDgQBwJnI5Z9awzDXuHOexhqEklziQJcc3ZnUq9u7SsaRp85DsMakhwd0iD1HLsjgpOT1dlKkKVTC17AcTSQJ1OIE5EGYyWpr3NE3fTxWFzWVIjAbsTtEEi66ZjLErLF7pLXAtc3VpXjah4qz2sw3FxipCWtZBfMNcZnInXhlwUHqir938QWhlSRestSjDoAuSvOFHOFN+qKv3fxBHqir938QUtMa1DuzqWoo0y4hoiTxIA8TkqDlzblgoyWmS89FzXaBuuE9avVmtuN5y7pU90DzcSfJqyuFy2txXPJFjvSHUjDXEGQ4gCWwdSY0JWkr2xp1sy042SMLmuzYYM4TwcPBZ/Zrf8A19bqn8m/ori+cGmm8mIfHc8Fv5x4IGCbsU2hCFJQWg5M8mnXUvcQ2mJE5GXcI4cVe2tGnaioyrTaamCKYxUxTc2CG4QSCOGY0GSvuSVEMtaQHuBx7XdI/mqD6TaAw0akZy5s9RAI/I+KpLA5wJyV7XuYwgZrHDZj/ep/4lP4pQheL1XKhCx229kvZUdUALmkl2IDNpJnPeO1bFRvqgalJwlSaYWQt+UN2wFrLuuGkEFvOvLYIgjCTCf5DWoLn1OjLAIn72LMdwjvVu6lQOZYz8I+CRL229XnabMVMiKjGiIjRzR+9/FQ0YU9KVpg4TEZTOuXjwWL5bWobVa8RLwScPEGCe+fJX3+01vhxYyXT7OF0xERpHmq0MbcVHVazIbEU6ZnIayY3oxTmF9G2R9KFkKFIVqlQVRTYKkU3kYw0B2YGecpsfShs37Z/wDhVf6V839X2vuD+ZHq+19wfzIgpaYX0g/SZs2Qefdv/wBzW4fwdikH0l7M/wCJP+DX/oXzP1fa+4P5ker7X3B/MiCjTC+nj6SNmf8AFf8ASr/0Ki5d8vLOrYVqVtcB9R4DYwVGnCXAPzc0D2cSxvq+19wfzKK4tbRjS5zBA/iTgo01HyGthD6vRkHDnwIkx2z5K2uSC7LT5qpsq9Kkaj6Tpplo6MGWnTKTM/FeVtoEk4Mm7paJiN+SpfSdW9xuWtdCxW2lYn97Vm8EACCcRjeNSV5SVC0UntMPa4lpGoIgg+MeC+v7e5Y2leweyne0W1302wOdbTId0S4YiRB1C+ZG3pVI50TAEDPInU5di6ZY2wOVNvgT5FFFhDBPq9ZrTVDqpI9XJq1dWdm65bVYNQ25ZWz3dFrz4wu7q5awCZk5NAEuJ6gpaYEAAQNwiPJdbGt8eKqWuOMuaJaS3m2ugBrgDhMiZjXXLJXxCym+9LMp3BBPMPgOwnpUcU8AzFJ7k3s2zbWh74cJMNdDXYXAsOJhzI1/YVi+vSa/AXF1QAkta0uM4WtBMZA4c9dSM96o76u8VWV2UHgghrmkANez7zmkunrjIE8AFF94ICjDSdE3DPd9ld0bQN6LWMawaAACDPkuK1UyR0AxupdDhlwOh7lb3e0bK9phzXChVEHA8hoeAIwtd7JPDQ5DJZO/ms+nRh2BxJcGZnA0SR3kiVSyiQZdecvWtW1aks7umIBvO/ZuyG7HBeXLxUw1KNN9UOJZqMIIOQ6RAHVGWSWpljnNZUpFhcYbjjCTlkHThnMb1rLSiA2D0Q0tMkYAMJEYgfZMZSJGevFXaWzhhNN4EREmTG8loEnETJxZRlB3q8alSwQI1evpvBSvqX/l/wCIz+pHqX/l/wCIz+pV9k8lsOzLXOaScicJIkjiRB71OpKSkr7LwCTgPY9rj4AqD0dvBdr1OEkpa7etm9Cow1HT7QOAR/CM+9Mt5M3NzX9LoUTzLWwIcHEOEyADBd7UqhdbVcPNBhjETigYSC7FJEYsQ6lYUWVGCGV7hg4Mc9jfwtICySQZk8fkTHJd/wBjBEBgy1jeMZI2q32VyUuBVqXZtnVKZZhw4i1+MENccIE5YTks3yrrkNdTBg5ug6sDTIz1xSI8VZUqlZvs3Vy3eYfUEk6kwdVVbU2UXscQXvqF0kvmXdUx3954pg34n1y6IdY4Y6KYnKCZHrJaGw2xb1WS2kcUCTzjpBI1iI1ULMUiXSJzEASOE7lTcmrB9LGXiJiG9m/grv8AeiQlswT4knqTCuoWKlUYC+nB8Rynqt/e7Sq0m27aT+baaLDHReBu9ogzA3pnlzc0n27CHNqYajSWtcJIwuGozGZCetNj0q1GhzgMtpMAIJB9kGFW8q9i0qFs+rTBDwW5kk5FwBy03qEVASRgdpuWBgove1hGcYXHesLdVGOEU6XNmfaLy5oABJxSIA60vZ1Q1xL2moyOiD/Zmd5y0HAa8VI65eRBzHYO3gpbCixx/tHYRIzEDcd0cYz3ToU2l0aJPMnmb+a3ns+kH94W3AYDDecPkN5UV7Ua6ObZzfHpF88NQITmx7QOY99RoeGkDUsz4ZAySkazQHENOIAkAxqNxzUYlOTGjJ4meMzzVh7PoG8MHrZgpL8AvPNtwAZQZdmDr0gCOxSWlam1sPpc46faxlmXCAFB+9AvIQSSIk8T1meaY7Ps8z3fX7Ly4ALi5kMG4QHEf3jqnKFxSDQHUMTt7ucLZ7gMl2LegRnWI6uZOXeHKO+t6TCOaq86DxplsduInPsQSSIJPgSOYgqIsVmm6nyd80i8GTBAG4QDA4SrA3NGI5kzGvOHWNYiO5Jns8kD95JuJdiT4EjoQpDs+zj/AI+vmuKcggkyJzEASOE7k7cXFItIZRwO3Oxl0dxGaVIQP3kkSSZk+BI6XHxR+H2f9vr5otjDgX9Nu9vsz3hVnK8841go0C1okvhxeScg3LgM/FWZC9n9wEySTM8zHCY5JO7OolpDWxtvnnKwNsDjESDO7VWhGUK/ubZhcHloxTkYzUgtgRm2Sd5AVtO0hhLYXIr9j1Kj9FrsNh9Ty2qLYN4wvqF9LHIZAxlsRinQb5Hgnbt4c6aY5sRpOPPjJhLW4AyAA7k7bNaTDshB4D9PJUtcCZZIGESekxyXQs9ipupf3hpOkyYjNd2lem1sPpY3e9jLO6AFxyfol9V9FuFmEveC7pnmy6QGA5GJwkkGNSu7+k1j4pnG2BmRoeGnZ4pGvQxxOoMtI6Lmni1wzB6wmHEOJk8T64Kx/Z9FzPcZB2z91oryjbhxL6JNSCHPZVqUy7C1hdEQDAJz34BxWY2gyagp06r4HScQ8ubh+oIdJDzvBO45DJe+jP05+rAk6tnMAHpAYtAN67o24aIbkOzzPE9aAYz5n5lIdnUzEsHz5H10tbK3sKQZUc2vVfmHU5bDciA4O6EnTxPBIbXrUhWZWpsfzTPaY5wxFpEOdiAy+qYzyBTNtb0y2X1sB4c1j85CkubSkGSyuXv93mi0eJd8U9N2tIdn0ATDTfsMDgB1VpSv6RbhZSaMWFs4sbDOZEEdMYZzO8iMtUrnaIE1anSaAHFoJpkg6YXN1IPRLSDplGcUTLVzTNOo6nBkBuEtBOpDXAgHIaLxtnm0ue55b7OKCG5k5NAAGp3b0gYESeJPMyeaPYGE/wC2OJjqJ3cxCYpumn7BZUc973EuLsnuJDSDvALRM7lPZ1WtJ5xvODcJwR15TKiz/YCAEpMRJ4nrM81cOz6Hwdfspbyo1xHNt5sbxOOfGIS0O98fh+akP7yXkJhxAiec9UHs+zn9HXzW29Of1eHzR6c/q8PmlkLWvKQEz6c/q8Pmj05/V4fNLIQiAmfTncB4fNHpzuA8PmllxWdhaTwBKJAvKA2TAxKcZy1qCQaLCAYBBcNMutSv5XvrDm+aa2d+InTPSBwWRptPeV3QqQ4O6wV51ltqhwc43Ts8cl7Kp2XZzTLWt96LrzjGMTrWm9OdwHh80enO4Dw+aUC6Xo14wQmfTncB4fNHpzuA8PmlkJJwEz6c7gPD5o9OdwHh80shCICZ9OdwHh80enO4Dw+aWQhEBM+nO4Dw+aPTncB4fNLIQiAmfTncB4fNHpzuA8PmlkIRATPpzuA8Pmj053AeHzSyt9n7HZWZLawD4MtI37uuNOKJAxTDZWP2xVdcV209zRGW6c3H8gtC28cAAAIGQy4KttNmuoF4qxzknFBkccj16phVUm4uOJ9BXV3C5gwHXM8VUbeBbVbcNABkTHvDQ98eS0FPaTnAOEQROnHvUTdlvuQabWkg5TuadQSerVc0dk17am1tZoBlwEEOkCDOXb5JBujUMYG/xCbnadITi27wKZ9OdwHh80enO4Dw+aWQrlngJn053AeHzR6c7gPD5pZCEQEz6c7gPD5o9OdwHh80shCICZ9OdwHh80enO4Dw+aWQhEBM+nO4Dw+aPTncB4fNLIQiAmfTncB4fNHpzuA8PmlkIRAQhCEIQhCEIQlNpGGRxIH6n8kIWe1kig8jUtnZ7Q61UwdYS2zqcun9yVDeU8D43OzH6heoXMdSb7DOczzjou82u/8AFS2bojwDQ/qVaW7pa09SlQhdiiZptJ1DovN2hobWe0ZOcOBQhCFNUoQhCEIQhCEIQhCEIQhCEIXOETO/ihCEIcwEknMnUnMntXnNDghCEKWhWcycDnNnXC4ie2CitXe/2nudGmIkx4oQnCa5QhCSSEIQhCEIQhCEIQhCEIQhCEIQhC//2Q==;" vertex="1" parent="1">
          <mxGeometry x="560" y="120" width="210.01" height="118" as="geometry" />
        </mxCell>
        <mxCell id="9TKklYcPQpPgtfztdnDr-2" value="" style="shape=image;verticalLabelPosition=bottom;labelBackgroundColor=default;verticalAlign=top;aspect=fixed;imageAspect=0;image=data:image/png,iVBORw0KGgoAAAANSUhEUgAAAOEAAADhCAMAAAAJbSJIAAABcVBMVEVtrMv///82k73/V1fFVzrZ5+ypSzAATGe2xM//Q0P/9fX/8rTF093/344AQ2CqSSxpsNGhXE//UEygvM5yqMbKUCp4pL+UqLW9ytT/8q8sXXTL2eLX7PHKZ0y8UzdjqMnZ4OkAcpjupKe3bVzGoJ3FUC+5nJqoQyMxkbz/OTlMjbL/5ZDunaD/MzIdi7nCSSXvy5jy5OGxwtPr8/fJ3+qgx9wAP2WaZ2L/R0d7s8+Rv9fB2uejORP43JYAP13F3Onf0tax0eK4sIAAZYjqwbr/9Ov1eXvkwcX3b3H5Zmfntbjqq65Sn8OZxNnHkYWzY057l667eWlIbXiBj4AyX2tObW6YpY69wZugnXpnfHIANV/U06TjzYmMnYobVWldfHvu5691jILLzKHVxIY7aH7HRBTRfWriraPYkYKTdHeoeHaCj6DvzL/vzKz/9tXb4Mr/9NuixMnSeIXeb3m7hpjbmnP12aTUhGLyiYy0eWzey8hGRCDiAAAM2ElEQVR4nN3d+0PTSAIH8EltrLZSOFwVVjDi2qUc0B7XhiMpAlEUkBZd8f1A9nZFd73TvTfLX38zaZNO0sxkkplJmn5/cBdI2nw6rzwmKVDkp6G2LEvvmAYMgIH/MTu61WqqjYb8dwcyX7zRtDoG0LoBvvR+a3SsplSnLGGjqRtBroCgxQxdGlOGsLFpAjachwnMlgylcKGKyi4SDmcCXRW9QWKFTTNq2QWUpdkUuk0ChYjHpesrRSJFCVVdEM9BCquuYoSb8dse2Wi0hGybAGFDbPHhSF1A58otbIhqfcFGk9vIKVRNebwe0uRskFzChnSfbTS4jBzCZHy2kaeuxhfqSflsY/w+J66wJbF/CSRqVqJC1UjWZxtBvOYYS5hoBcWMekJCFaQDjFmM0YWdtHy2MXoxRhWmV4A9YuRijCi00vXZRkuisJFCFzoYzYg0NkYRqsPgQ9Gi1NQIwiGooU6i1FR2YWJ7oSzRTOFCehM0L8uISSMyN0ZGYYPmMy7IikEzMhLZhPQ+RhrwwgXa2zL2N0zCJhVoShTSKirQmM45DgpXPCkq6EiJ9j7gskThZeo7ayxn4/zCg/Ve6r3MroSNEukJmUYNn/DR/Plu8m4+PJ4YWiEL0SvcXu8Bb/SF+dkhFjIQvcIfxgeKMJ+/cpVVONXPn7vBfxUh7MJwolf4HY9w6tq3bp7c6ebw21i5NsUsDCUKFF7YKDgp3xmzs/isXIiTDfYyDO1RBQqvuZrVu4s94dNYwEL5WgRhyLgoRfi0B0xISN+BkyF0ixDWUkbSkbc2RxRSiTKEG2NOFg/Z2mG5dMQlBEaiwvKzRVd4d5UFuPF8+oVnwchCyvGiDOGhKxy7wyQslEqlJ3hpRxZSxgwZwpd94eIrhmr6+gUUvnnNJSQfS0kWjr0NLcSN8vMSyotCf9EYQmJvI1u4+JJOLK++Kzl5XnAKPI6Q1NvIEL7ChGOL7zeIPJgnpelSP++dl4gjJDRFGaPFES6ERFoplt8fu8TjH7nKkNAUpYz4b8c8xJerlO6mvPrjcRf4bsNdLJ4QBJ6SkSHEhwub+PbV6gYZWV59g4BlrDbHFGqdhISF1TtjYz7jy1dHR0dBPuR5BivqId5c45Zh0D64FGH5/eKY3whD3A1f/WvpmG+fxiUmJCysvhwgUgf/p9PvPX+MLxysp3KE2OGFCzykdKkbh94hJbYwoD+VJCy8frfoGRXHnlFHfl/xxhcO9qeyhIXVpz85RtgE7/oN9HAIB85pSBMi4923SHfnp8MC2yGGkDL0dzYShbB5rRaOnh6VaQO+BKGeoJCUe/ckCv0HGakI5+ZkCoFJFs78IRHh3FwYkU/oHTE8QjMR4T0kpNdTPqG3EHGhqiUhtIEhRE6hpxBxoTEhX9jzhRg5hZ7DfUyoavKFGJBG5BXi3SkmNEECZdg30qoprxBviX1hQ0tE2O1KQzpTbiFWiH2hnpRQ+mgBPDs2faEGeIXUk2pY7oUNFoUNXiG2d+oKW9zCqZ83ymyZm6P/fePnCNeACcLWgBBNsOITXpi6JiruhfzYwv6A4QjteV2cQgmJL3RHfUeoj5xQ9wnteU+jJHT7mp6wOYLCpkfYnQM4UkJnvwZglTSm0JgK39KYmaJNoQ2LhgubPEKJhchThE41BVgljSuERBnFOMUHdKopwCppbOGQRusL1REVqq5QH1Gh7gqdX42YsLtvioTuzRSjJrSPg4GCzcUfOeFmT+je1DBqQnu8AFgzHD0h6Ar79zSNnBA1RIDf8zN6wqYttEZYaNnC/v77yAnRiAjcnVJAEFY+XNWiJUWRPxoSNmjCSv3k4/bNSGlZ6Hl0KarwwK4G4DcXDgjrn1YUpRg9N62UH0zgBHY1AL9F2y+sb8fhdXNpKIywqwFKp/+zT8gDhAm5MTOZdKAQOxXiFVY+cQGLxWF4BIMBhdiPXmF9hQ8Ik/iDbCZ8gfttABssfMITziJMnjjx+Je/9PKdnV8/TyigQRJWPgoQJkqc+GV9ftxOvtIb7K782gAqUbgtAFgsUu83Fwv8HHCPb/0MNEnCuhhhMTlh4B7ZNmgRy/BvYoQ3k6qnE87Ge4QfgUUU/l2MMLF6Giw8ADq+jEf4J0FC6lNDpAs/gQ6+jFf4RRAxoUIMFOZPAP72PuH0fTHCr8kUYrBwFuDXr3zCUkkI8UspEWA84fRv3L77penpfyRSiMHCG3Rhabr05T5HQd7/Dd2ZNo1VU7iv+I2snA8S5kOECMkV+yXeuCfVH/9zb1JaCEIQJhQRR/ivyXMSk6Jwuiv8Zk+mL12h3RQmduUCUxdO/FtqFSULQ3saEUJ7SplkX3Rh/j/ChMdoZudn2UUYXZgXBZz+qqrqzH5aQuJ+qcBqqiLhrbSExGMLYYVoF2Fqwlny8SH6qzhgWkJ4fEg8xreJ/+X2lbrAFIXE8zTdBf7H1xiPv15X0xYSz7U5i1TysxFz+7qTS5cupS3cJp8vjZ3K7UtY0hcSz3lzCK8Pj7B+RrluMRrCIuXa08gIidcPR0I4S70GPCpCynX87AsrH0PmYoyGkDqfJuvC+grDnKhsC5nmtWVZmLeF/UvtIyesfGKaX5pl4UemOcIZFsKOhmWed4aFFba5+hkWnrDdb5FdIWqGLPfMZFeImiHLfU8ZFjLeu5ZZYeXEFTZTFU5Orq2tXXQC/39yMsqHAVfvrTog3Ga8h1SQcGlws/sbF5C1cKZvdb+wXmS8D1iKkIrDmcHOwNX9wlnsPuBN2r3c+RvRQhIuRMPhTrvmdrNGXtkntMcKR9igCs9Hy/z3l4KFqESi4qLEJ7THCqZnKogTSo5POMv8XIyMCrs9KdOzTTIq7PakTM+nyajwRPEKKc8YyqawfuYTUp4TlU1hXvELyc/6yqSwNxjiQvLz2qQLF2CWnaAfon0WzuoLuPBDcVBIfOaeRCHatLW9B0u39ne2utl5uH/rdPcc2mAW2/LyRbj6/kO0+k1MiE6yDQiJz00UJHy47N+6hXOn+zvqTDfOYr2ftnZO9y4uk0sTldvag6Wdm/3VZ7A5wr39Ga+Q+OxLMUJ1Zm2hj1uGuC0Vkw3EZu6f7i14au5Cr0qu7S493PKtjgtPlCBhg/D8UkFCdWsNbapdcmcqxeZlzqhnO7eWTh/s7sHs7j44XYI1eibos8GE7lDhFSqmXKGq7p8+2LfrFQPO5/SEsFhfOKsECwnPERYnpGyegPSFeBF6nwVtSBbKjSscx4uQ5XneWRGqzsavnxGFyu+DX7SaHaFThuM/KGThinMXpkc4Hi3r3wedxUhOuL5CESoH84PCK1dDvkzWF01PtQznDxSasBgojAQEIGVhkSpUbs9nXDh/W6ELlfPjmRaOP/KDBoRb61kV2qOFd6QIFHY7mywKURn6u5lAoZJp4SAnQHi2nlnhYB0NFKI9m2wK538P0AR+ZWBWheNBmEDh2XomhUF1lCBUDioZFKqD/ShZqMxmURhMIQhX6pjwj7loMdMRMn0fcD9n9djCKl3YbLZgms2YDri21U3L+xKkr1cnCZWDemyhEShsWqahtau1fqq5NjD1FqPM6hhaDq1erXb/hf/gL0CCEIXKo0rcWtr2HwE3daMNNw5umu+zyKGtrbaNEGarA9CSA+ujl0AvkNNM/7cesgiVG3GFtY5DvH59CuKQjbqCzQQdf71DVVI3QTvgs/GvnyMzKEKnt4ksRC0R3bd2GVWrkI3zMuGybXQhE13q09rdAmJYvVojNUK60OltogtzaEPbYZ88Yc2qkxzz2jViIwwR9ogxhGjjouvipkZuhGFC5XY9pjDJ1HSqgS60iUMurAV9GTe7EA2Lwy2smSGCMCEkDrUwFBguVA4+DLEwHMggVD4Nr5AByCJUOrW0JYSEdTLMQkUfTmLIMBFFqLRqyY3frKnSB/qIQqU5dMQqdVctulBpJLgXxpJqjrKzHUuoKNowNcaa/zviRQgVc3iILKNEDOHQ9DesfUx04ZA0RvYmGF2oKEbqxVitGeGbySFUWjGO24UCq5sRtziqEK6RYodTrcXY3shrKFZqNTVaFxNfiFpjKsCoLZBDqDRT6FSruWasbY0nREdUyRqrbAcSAoVKAyRohENEpDFQiFBR1HZCxmpNYzyOECyEzTEJY7XWjtcARQgTMPL6uIWwrspsj3CE56ifgoSwz5G1s8rTvwgVwljiK2u1los7PngjRggbpFETiKzC6snZ/NyIEiro/j6my5ksPM0SUD17ESiELdLSapzKaq3W1sXxFMFClJaRi3XxtzfpwGgJ5SkShDCqBdiuv3t4tZymcw8NAZEhRFEtWJZMVdaeHtM2LBk6FFlCO6rV6c4R8s886M1HsGcNaaY0nB2pwm4a6qbVMU2j3XaF7TYwTL21SZyqJTD/BzmcTO0lDDliAAAAAElFTkSuQmCC;" vertex="1" parent="1">
          <mxGeometry x="577.5" y="515" width="125" height="125" as="geometry" />
        </mxCell>
      </root>
    </mxGraphModel>
  </diagram>
  <diagram id="jFNgLu1EfDIZS8KTluPa" name="Organización">
    <mxGraphModel dx="1382" dy="795" grid="1" gridSize="10" guides="1" tooltips="1" connect="1" arrows="1" fold="1" page="1" pageScale="1" pageWidth="827" pageHeight="1169" math="0" shadow="0">
      <root>
        <mxCell id="0" />
        <mxCell id="1" parent="0" />
        <mxCell id="5wYJBxHWKUSwLPzMomjk-15" value="V. Independiente" style="rounded=0;whiteSpace=wrap;html=1;fillColor=#f5f5f5;strokeColor=#666666;fontColor=#333333;" vertex="1" parent="1">
          <mxGeometry x="60" y="290" width="120" height="30" as="geometry" />
        </mxCell>
        <mxCell id="5wYJBxHWKUSwLPzMomjk-16" value="V. Dependiente" style="rounded=0;whiteSpace=wrap;html=1;fillColor=#f8cecc;strokeColor=#b85450;" vertex="1" parent="1">
          <mxGeometry x="480" y="340" width="120" height="30" as="geometry" />
        </mxCell>
        <mxCell id="5wYJBxHWKUSwLPzMomjk-17" value="V. Interviniente" style="rounded=0;whiteSpace=wrap;html=1;fillColor=#f5f5f5;strokeColor=#666666;fontColor=#333333;" vertex="1" parent="1">
          <mxGeometry x="450" y="90" width="120" height="30" as="geometry" />
        </mxCell>
        <mxCell id="5wYJBxHWKUSwLPzMomjk-18" value="" style="endArrow=classic;html=1;rounded=0;strokeWidth=2;fillColor=#ffe6cc;strokeColor=#d79b00;" edge="1" parent="1">
          <mxGeometry width="50" height="50" relative="1" as="geometry">
            <mxPoint x="250" y="230" as="sourcePoint" />
            <mxPoint x="540" y="230" as="targetPoint" />
          </mxGeometry>
        </mxCell>
        <mxCell id="5wYJBxHWKUSwLPzMomjk-19" value="&lt;span style=&quot;font-size: 11pt; line-height: 107%; font-family: Calibri, sans-serif;&quot;&gt;Sistema Experto&lt;/span&gt;" style="text;html=1;strokeColor=none;fillColor=none;align=center;verticalAlign=middle;whiteSpace=wrap;rounded=0;" vertex="1" parent="1">
          <mxGeometry x="90" y="211" width="60" height="30" as="geometry" />
        </mxCell>
        <mxCell id="5wYJBxHWKUSwLPzMomjk-20" value="Metodología &lt;font face=&quot;Calibri, sans-serif&quot;&gt;&lt;span style=&quot;font-size: 14.6667px;&quot;&gt;SCRUM&lt;/span&gt;&lt;/font&gt;" style="rounded=0;whiteSpace=wrap;html=1;fillColor=#fff2cc;strokeColor=#d6b656;" vertex="1" parent="1">
          <mxGeometry x="380" y="140" width="120" height="30" as="geometry" />
        </mxCell>
        <mxCell id="5wYJBxHWKUSwLPzMomjk-21" value="V. Independiente" style="rounded=0;whiteSpace=wrap;html=1;fillColor=#f5f5f5;strokeColor=#666666;fontColor=#333333;" vertex="1" parent="1">
          <mxGeometry x="60" y="725" width="120" height="30" as="geometry" />
        </mxCell>
        <mxCell id="5wYJBxHWKUSwLPzMomjk-22" value="V. Dependiente" style="rounded=0;whiteSpace=wrap;html=1;fillColor=#f8cecc;strokeColor=#b85450;" vertex="1" parent="1">
          <mxGeometry x="480" y="775" width="120" height="30" as="geometry" />
        </mxCell>
        <mxCell id="5wYJBxHWKUSwLPzMomjk-23" value="V. Interviniente" style="rounded=0;whiteSpace=wrap;html=1;fillColor=#f5f5f5;strokeColor=#666666;fontColor=#333333;" vertex="1" parent="1">
          <mxGeometry x="414" y="520" width="120" height="30" as="geometry" />
        </mxCell>
        <mxCell id="5wYJBxHWKUSwLPzMomjk-24" value="" style="endArrow=classic;html=1;rounded=0;strokeWidth=2;fillColor=#ffe6cc;strokeColor=#d79b00;" edge="1" parent="1">
          <mxGeometry width="50" height="50" relative="1" as="geometry">
            <mxPoint x="250" y="665" as="sourcePoint" />
            <mxPoint x="540" y="665" as="targetPoint" />
          </mxGeometry>
        </mxCell>
        <mxCell id="5wYJBxHWKUSwLPzMomjk-25" value="&lt;span style=&quot;font-size: 11pt; line-height: 107%; font-family: Calibri, sans-serif;&quot;&gt;Business Intelligence&lt;/span&gt;" style="text;html=1;strokeColor=none;fillColor=none;align=center;verticalAlign=middle;whiteSpace=wrap;rounded=0;" vertex="1" parent="1">
          <mxGeometry x="90" y="645" width="60" height="30" as="geometry" />
        </mxCell>
        <mxCell id="5wYJBxHWKUSwLPzMomjk-26" value="Metodología&amp;nbsp;&lt;span style=&quot;font-size: 11pt; line-height: 107%; font-family: Calibri, sans-serif;&quot;&gt;Ralph Kimball&lt;/span&gt;" style="rounded=0;whiteSpace=wrap;html=1;fillColor=#fff2cc;strokeColor=#d6b656;" vertex="1" parent="1">
          <mxGeometry x="390" y="570" width="120" height="30" as="geometry" />
        </mxCell>
        <mxCell id="5wYJBxHWKUSwLPzMomjk-27" value="&lt;span style=&quot;font-size: 11pt; line-height: 107%; font-family: Calibri, sans-serif;&quot;&gt;Desempeño de estudiantes de la Institución Virgen del Carmen de Alto&lt;br/&gt;Trujillo&lt;/span&gt;" style="rounded=0;whiteSpace=wrap;html=1;fillColor=#f8cecc;strokeColor=#b85450;" vertex="1" parent="1">
          <mxGeometry x="500" y="250" width="180" height="70" as="geometry" />
        </mxCell>
        <mxCell id="5wYJBxHWKUSwLPzMomjk-28" value="&lt;span style=&quot;font-size: 11pt; line-height: 107%; font-family: Calibri, sans-serif;&quot;&gt;Proceso de toma de decisiones en las ventas de la empresa La Pequeñita Inversiones EIRL&lt;/span&gt;" style="rounded=0;whiteSpace=wrap;html=1;fillColor=#f8cecc;strokeColor=#b85450;" vertex="1" parent="1">
          <mxGeometry x="500" y="695" width="190" height="60" as="geometry" />
        </mxCell>
        <mxCell id="f5R2noHbCyS-vPVK68VL-1" value="" style="shape=image;verticalLabelPosition=bottom;labelBackgroundColor=default;verticalAlign=top;aspect=fixed;imageAspect=0;image=data:image/jpeg,/9j/4AAQSkZJRgABAQAAAQABAAD/2wCEAAkGBxQUExYTExQXFxYYFyIYGBkZGRgYHhsbGxkZGRgZGhkeHioiIRsnHhsfIzMjJystMDAwGCE2OzYvOiovMC0BCwsLDw4PHBERHC8oIScvMy8xLy8tLy0vLy8xMS8xLzgxMi8vLy8vMS8vMi8vLy8vLy8vLy8vLy8vLy8vLy8vL//AABEIAL8BCAMBIgACEQEDEQH/xAAcAAACAgMBAQAAAAAAAAAAAAAFBgMEAQIHAAj/xABBEAACAQIEAwUFBQcCBgMBAAABAhEAAwQSITEFQVEGEyJhcTKBkaHwB1KxwdEUI0JicpLhovEVJDOCstJDY3MW/8QAGgEAAwEBAQEAAAAAAAAAAAAAAgMEAQAFBv/EADARAAICAQMDAgUDAwUAAAAAAAECABEDEiExBEFREyIFYXGBkTKhsVLB0RQkM0Lh/9oADAMBAAIRAxEAPwBny60xW+0tlLkX81gsoCm6MqNlLyVuaoQQQd5jcCgV4eI+tMGHx1l1sp3iG5bZQUzLmAYG37O8Q1eX8LI1Mpj+qvSCJvhuH2u7tvaOQqwAa0QAZJt5iuqMYO5B3qrxHBEi73iLcVXW5nSEcFRbbVT4T7OpzD0rbG9nbWa6bIaxc7sOGssbfj8cFlXwNqo9oHaqmJbGW0BW5axC3lCjvB3NwSjEEuoKNp/Iuwr2V3NgyM7DcQMOHi5eyIHBJMe1baR6jy5gg+YqG3fv2gBdTOAjM0DI65CFbwnwvvOhXbaiVnHh8SO/sPZA9oXe7KwS2odWKkfCj3/D1uW8tu7mRxcUSe9U5yW0M5thyaPKk4fYzrXe/wAi4bjUFPyi3axVtyVDeJfaUyrL6qdRWHrPaTgAOa7lYQ3eSJdQe6A8P8a7DkRymhd0X0AdE71CJI3I1YHUajbYgzO4pxYagvkX+IFGiZce5UL4mKpYbjdq4xSGVxupGu8ctDVhMeg2YfEUl8ig1cNQTJhdc7I/9pr3eP8Acf8AtNescZVAFHdwPSpx2iH/ANf+mk+qvmMCmVxcf7j/ANp/StWuN9x/7W/Srn/9EvW3/pqG/wAfnZrY9ymhOVZoUyEYjyI9QRXv2iq+I40IgsI9RQG52otnZW/0/rXDJc2qjN39Y7+le12ntmNG165f1onhuLIwBDDUTqRWM9TQIVN4xIBMdBWO9b7rfCtLXF9CJBB0I0gjofKri8dH3bf9q/pS/VXuZukyobzfdb4Vp+0N9xvgavN2hUfw2v7U/SoX7Tp0s/BKE5E8zdLSo+JIElW+BrT9qrbG9obbrDCzE9F0PLXrQjFcaU6yDQFx2hAHvCD4qq7YknahmM4lbt+02ZvuLv8A9x2H40uY7id66CJFtCNhpy67netUk8QtEYsfx21akTnYCcqnp1P6a0v4rid++0E5UDQVGiwAZnrrpr8KoHKs5RmaOe2twCI/XpU4sOTLEABmInTSIWB89qaEA3O8IbbCaWbKqFDHMwDHQwOc+umlT2bjMbIXQEyQugidNusc61Rba6asVt77AgkfqKs2u8ZgiKcotzAB9ojQQvr1/KtJhadp0fs/ZK4eyCIPdgkeon8686zc99EMLayoq9FA+AAql3bFyVHM618/lNt9TK0iJaxzPiLmYnIpZj/DuWAEbto3+kGvU78P7P27QAVVHnEtpG7HU7Dnyr1el/rMY23id/AhvGrDt61W4ywOHt51V1S8pIZQwyg5joesfOrvFPbPnS12p4alyy9zKO8VcqsNGidpGsSZinfDTp6zT5sSPqheG/pDF+2y37tu1cu2j3DMgRyV8OQAd2+ZAJY7Ab0YW+f2PDPPsi0dvRG/E0jcOtM13DP3t60b2H2zm4VZlLuv74OcvhGh6U0cLcnhgkyVViTp/BdY/lX0WUUR9p56cGXOIsFvWnPUE6fdYGstiMI15gpRLj3lMqzWLhDW1X+Eq5166b1DxVpCHzPz1/Kg/GeJDvbga3cAJsOQUDiO8ZD7BbQqsD0qNF/3Dr9D+1Rp/wCNT9YyYuzfUMtu8LgZWWLqifCzKALiRA9VY+dDuDsrWrYuWXzBD4rYLkEXFYqCn73TP92Nao8DxSFwqCPDd8IXLEX9PCQI0Mbcq34fjGsXBcXLOV0IYE7G2w1DCNjyO1MypTL94CNer7QZhcKjMbiujkvlbbMulwgECI5TInQa661OH8NRixZVPiPLzJpgvst/K9y0gdLigEeKDAWQxUEGDHuodw1PFcH81eH8YQrkDDawJb0TAqR4MnXBp9xfgKmTCJ91fgKlArYV8+2qXipqMOvQfCsm0OgqQV5qAhpu0qXrQ6CuedqcKhxAl4izbhQWHJto0rpD0l8U4XcuGRatXI7xczpbzDK37oZipMDUabV6nwrKuJmLnmpL1SFgAsXezlpRiSAcw7l9G8Q3TcH1+dPnCv8AppIX2RsPIUvYLg7W5YJaQ5TJREU66xKgHL+gpl4baIRfQfhW/E8y5CChhdKmgENCCqOgqQKOgrCCtq8WmlYqaMg8qguWh0FWWqJ60XClF7I6Cq120Om2vyNX7gqtdSVYe4fCnY2NzjxOb2kMAqsbeJvXz0/3qJUQnxMXO2m3/wAY39SDtzNOGE7JoSDduFyOS+s6nX8qYMDwSzbjJaURzOp5c9Tyr3j1mNeN/pJdBiBgMJfuR3doqsiTEaZiW1Pl586LYPsbcYTdualWByifaMzJjlpzp6W1FbhKQ/XMf0iv3hDH5i5geyVhNSMxgLrqCBt4dF+VHLGBRdl/IfCrSitwKnbNkf8AUYYUCZNQYQb1ZubH0qPCrpU7fqEYB7ZNkr1bBa9TKgz3EDJB6igXHsILls+N1IBjKzLOmxAOu3OruDvTbVZzZRAO8jlrVbi2GW5bys7IJBlGKnpuOWtW4s64+pGTtclfEzYyneLVrCvlwdwYi4Dov8Bykr3ZiV8yIM039mSf2a/aY5ir3EmAJlFI0HqaWhwKxAUYi9CkMozzBBzSNOutX8JYNvN3eJvAMZYQrSYifEhPzr23+K4GG1/iRr0eRT2h29iA9iyRGoB+KUtdqrlw94pRf3mFOq3CDlRiQ2q+1L7fOpbOFZMoGIvFVIhSiRA5SLcx7614hhe9bMbriEa2ALeyvlLD2dfZFKHxLAM5feiB27iaekyenp73LvBcUxu+JCsPcXcHVhbeNNfPaqPaJhvlObNcAIVjE2rxHs67gH4161h2U5hdf2s+tob5Mn3elYxVt2EZ2nPnnu/JliOkMabk+KdOxWidj4+UUnR5RdjkeYS4W4ynLmjvAfFn371hpn1iAPn51jh//Wuj+b8hQ6294CO83iT3fRi33upNW8Fd/fueuvyFed8S6nHnK6DwN/zKelwviDau5hmKUO1HGL1m9kttlGUHZTv6jypvDUgduiP2gf8A5j8WpXw7ErZSCL2iviLsuK1NbyDF9rcRbtowKMWZ1OZeSrbIjKR949dhRbsT2gu4rEGzdCgd2WlMwMgqOZOmtJXEz/y9s9Lrf+Fv9KNfZZejG+tpx/417LYMdfpH4kGLK5K2xnVb3CEHNv7qrPwi31b+40VNwHzrR7f3TNL9JO6j8S2z5gkcGt/zf3f4rI4Qn3n+I/SiBEVGz1xxJ/SPxO1HzKn/AAtfvv8AEfpUd7hyhWOe5oCdx09KH43tH3dxQ1s9ybgsm7LaOdB4csFcxCzmnfSBNEcbeHdOZ/gP4Gg9LH/SPxCth3nLMf2kvKLRt4ovmtgv+7UBX/iWSuvw2jrTn2XxL3MOj3GzMc0nQfxsBtptp7qUcFesKoVYdMoW8rIQ4FwgvdFyEKrNxUmAcoaJiab+AYZrVhbbZcykg5dpzNt5a153xPGq4dgOR2jejLepue0IOK1QD515jWLZ/GvCAnqCWkFTrUFs1ZUU4CAZ6KyoraKyBRgTLnq3Xes1la0TLmMT7NYwo0rGMOnvqXDjQUB3eGNkm4FeqQV6nQLgDDHf0qdjpVNH8VTl6AQm5kgrE0GftLhhcNo3kDg5SDIE9M0ZZ99Eu8o3xOlagRfmCGB4MlJrUmqHFOJJZtPcuE5VEmNzrAA8yTFCOB9qrWJZlVXRgJhoMjYkETseVEMLspcDYTDkUGr3jGXqJ2qtcvnKco1gx8KUOzTYwO96/wB93IQklw2XdSCOQ57cuQpmHpmyIzDtAbMFIHmOLvVe1di8f6R+NBOIcbXuzkbxsITf2iCQdOXP3Ur9mkvJiQzm53YzSTJzaGJEzqdabh6N3Vjx4+cF8ygidcs36Su3h/fqf/rHyZv1qxi+0fdI1xoVIGWUYtmkSCsjz2PyoBxzFXMYgvWCphcpUwrZpBgLJ67TVvQ9PkxZNT8UZD1hXKmlfIg7ibxhwTpF38UP/rRL7Mb3/OpHO2//AIz+VH+xvZBbmHLY5yFY6Iy5dQM2YOSJAmNPunlU+J4GLN5G4e1t31Hj8Tagnw5PCRlkRGgAr1vn2kaYtC78iPAuGd6msYgqZ6ikK5xDiSkhrmGBG4III9RFK2BwmPt4tr5uRlzEuXLWyCCSCPu67RAigYrHKSeBO03MVJEjTp/mqmKbL56Tpr58udckscdxC4lri4y2zXPDkY3cg2jwlAg2gEHn5mi9/jXEAdbmF67T8qEkDabquL/HWv3rt1wpyi4bgUOpghciMVBJDQo0yzM+o6FjMZ/y907fumP+kmuScQuP3xzQbrOG05tObMNIj12+NMd/iuO7toNhpEeEGdf6jHxpTGiN42xWwlHiPak31Ki3Dkr4g5YyGRvZygb21+t3rs27HD2y0liJYncsTJJ95rloW9YIusirlPeAwurZhA01IB5bb04dkO09s2bdq4wW5myKPF4tBBnYEkxqdxUPxDGz4vZvvGdKNGT3eI5ua1ttUTPWVavAVZ6d7QhZartsULttRTCNMetOAiyZu2lSW1mtMafFpU+CEiaMLvBuakRWK2bXWtAa4zQZDjG2FWrJFU73tCrto0pBbkxjH2iWVFeqdbeleqnTFaokNdE70G7T9pEw9tlVpvMvgXUxOmY8gBvrvFXL94Zo8vwrkPH8abt+686FzHoNF+QqnoenGTJb8Df6xXUZCqjTKj5jEg6nfqefv1+dde7K2b1uwqXyCw9kblV5Kx5kfhFEOyOPwuIw1tEAHdqFA0DI0QT67685rfEcPui4Qvd92FJDu8EkE7IAYH8xIr0uvx5MopRY/eTYMgU78wdxpbV+w9o3UGYDWQ0EEMNMwMaVjs72XsWRNvFo1xtCGKhTJgBQCWGsakmaXMW6QbpfKS0C3lJbXqw8I+Mwu1bYW+wSYIBXyG3iEgn+X00pOJCienpsGVhQ41VvHPEYHGqrDD2WZ2BUMrWoXzlnA/Hbauf4+9j0ulb1xjik9nJcRygMZlypKwRuPKiz8Yuv+670+FVzDbPmIgk7x6RS5wjFLhb5vF1aZGXxHSRud82kx8SKs6fHtpWwB5kmYhXN88Q7g+KMtvu71i33h1VmtQysdJEADcnYCAY2q1Y4iiHU6xG3SlnFdou9PjGRWMqy7qRPiIPtDxHwyNNttbXBkhrgYrcBTQyHHtoZHL2Tz60L6kPP94OlXnQuG9l04jh89xilnNKmPEWWQYB5biT51s3BhgWFzD2bV8uSA92M6Fd8qqOg3A0iNOYLD8YxCW1t27rIiiAgKgAdABoBQ3tFxV0Fm53hQ5oN0Zi6CWJKQy6npOvlWjMG2HPmF6JQWTtDPE+3BexeTEWUYqcjgE5fForidSOekEEHpNLeG413Fu2+FeMqXNXUMwA7tAwMCFMHaDp5aWe1naUrY/YbAuJajKXaAzsWDNOQkQYYFeZ1OlCLGFzLh0ClYzG4sFfEjI2Uz56Df2qOidzALDgCNGOwuJt2SxS2zg5mZVLyv8QCZd51zFtuXOk/i/aC8QFW8cm5S2zWxJ0YMo0J5SelMXZbit3EMbNuy73S4zIoJIVdZZmIVVzbyeQosPsiy3u8uX1CE5u7VSx1/hLSBE86BMRQkEC/InOQ1G/tFHs3wlncl8MSijOLhVwoIIhWIhSDpp+Wz8RZugXERQrajLqPUabGr/E+CYpHT9labTo9u+uklSkoAhMFsy5VI1BfTc0pYfgD2rSI6upCiQ4Kt5yp21pPU4TkXc1CQquw3gXtFaS3jrGmjAKQPNmUH5/Kj6Ya0lxbbaBwSTMaAiPSTz/lNUsdwhS65U1gCTLE6zuIO9S8V4e/cZ7jkXEIVfC2bKANFEjSPnXLhHts8CEMukMa37TXjmAt3c1pACoA8R1MkkLGojUSfKBVzh32ZobVtr1xrbe0VXLoZn2jMGAJEEDryon2P4KyIcSyvdfKbS5NSwW4zMVB5t4V6+EbTU3a7jt21ZDibbsvssQfEwOhgkaATp1NOxqMYN7/AC+sJtWSqFEyXG4VUhVZmYLJzEmVGmaYAnTWlXjfEEtksbzCDlIUtoRAjQQCOfOhfFFxLYcXb10kvyyKuhAyywjTQGIjWjHBuwj3rCm6Lp8IyKUywecM2gHLz3mpj02MuXH4EZbqNLfkwxwC6AhdrjMGAKkS4IiRGuhMx00FErfaKypM95IOvhH/ALVFw3sjew6BQUIUkhcxJjMSFnKBpMb++h+H4faZgjsyvMMpgGYPVfSos2HSTtDR1bkwT227XXi9u3hA6ZhM5AzMZK5VGugidNdRTB9nfaS7ftMl8EXF0DEZe8BnUDTURBjy60W7NcMtlgIGVMzHNBJAMDXrJBqTjXE7WGSQkAH2VAB10AA0FUjFjbDWwN0PJMWupslKCbh67ahBVAtrFAOGduEu/u2R1J9mYMjU6EHy5xV5carOYNedlTQalGlhyKlsmXq5b3ofYeWNY4xxW3hrL3nIhQYBMZmglVHrFT4lLHbuYeQ0BG57cL7q9XzbxDt3jLl9r3fPDbW8xyKJ0GUEDTrvXq9b/Qv5Ej9YQ5wvjt/EsLa2FuOdsngPqAIAA5kir3argWFtXESwE7yZdGVG2g5ZCggkH3xvNEcHxrD4dXtWzZwyqfZV81x9PauOfFMHYDTrXO+MY5sRfd7L5Vge3ct2tQI0zMJGnr1r0Bvso+9QWXQLY/bmMGfDYR1uZXUnMA6roMxJHroeQOwq6vFrd8MUuFwsCCCurTEiBOgO80ncVwr3Sr57ZYrDr31pspG5EN7J9ryM+VWLfDUtWFF5ypu3A6ZYJIRSBrOg/eTO/QGufETyTdRIcdhDWOtMFgRDuWJIzCF0UHprm+FBhxJlZE1kGZJOoBeREbac/SreNxLOcqmFACjmSABBPmZJ99ULYCtqhJHsnTSZ3HPf8aFduYxcjqKWXcXbuXItW0LPdUEvtEEsB1A6n1qoeyOKmO5OnMMpn56CmDgmJNu9ad2yplhiYUAnMBPTWKbXxuqqpSYJLaERsAJ0OvPyrfXKf9bHzucE9Q2x3nLn7JYsnSy0DbVBPxajvYPF4zAY1LfdtluiHtyMrqJhswn2fLXXzp3OIXTM6k7QCAZk7AHWk/t5xVFFm5h7y96jMJtuGIDDWYJjUbGlp1Du9Vse8NsKKt3uO06hxTtglte7FmytxlLCWACiQskZOfL+muddpsP+1Ittb1tVHjuAeIlgI0I0gSdTE6VnEcOe+zZGYkpbJPeNMbEz1099ZHAnt2r+a4SXti2AzkjkJM8/P9a9H0PZq1A/zIjlGqgDB5xts3WGZDbR3kMgbMMpuBgSCMsnTWdPOljGcVYktbZVWZhVVYPPYeQ50z4rCpaw9xZDkeJokbAWyBocwyDNuI86Q7y8l1FKNVCAMcezXbC/Yt3RZ8N68yKbgVczBcwCkbTL7jUxrtTV/wAZxzAMLwmPZZZBA6tHPTWuZ8LTIr3iDNsArppmaVWZ3G/wouna+53RJKZ52ynXod9v0qfL6hrQZRiONLLg7xyw/bS499bd0hbSgG7nAGR1LENI3URPnA2q/iMc7MWKSD7JzEyORk8jv765vwniBuXHZwozumY7DKfC+/8AID866RgcQBbQFdlHLoBRFNhZi2ckkDi5ph+IAOCbbadCPzFHsRx/DtZy3bDs8RIycyJ5A7ULTFIeXPpR7AcWsKFD2UcQQc1tD6GYn51i7cGZ9oFwPF1W6bdlbq5nISW0BZiVkAiRqKWftGdrhtkpkaXQiQZIIzssbrsJMb7b10LjvEcKtstYsql0HOWy+yBLEg8tY91SWuGYXEoqPBcQw1IJLKoADHkRGnM8qZvpIuHidVdWa6E5l9nOHdsYj3Xc27Ks5BLMC2Uqgj1M/wDbXVcVx+2r92xOeAcoBJ1gAQNff50LXC4bB4i5aWQzKuUDO0kBhlnYNJnXTxDpVPg2Hwz4h7+IvWs8wEd0ALGBME7DQD1FChZQbG38mW5Vw5fet1LvGu0lrDhu8JDqmfKQVzDYBWaFknSJrl3ajtwmJJZFe0+ir7JGUEzm1313A5CiX2s2la/aNi4j2cmyvnCuSSNATAKwR6PSMOGN7TwB0rBVBjI3FNpURu4P2svottLyq6XLiTdOhCZhm0UQdJ219aO9suL22tC4xyQ5ChozNqVDqoOqxJ6wRoOafwOzbZraOpZZ0gkR0MbEA9eU1R7ZYkXLwYETEFBPhPMbDTpWZBiyMCq1/EqwO2FDkuyOOIxcGxlu7iLQsE+GASwiNwuvvj30zWbJ7zMpMFjzPXWPLSkDspwu4JvFcuV1y5hBmZkKRqNveK6JwtoEdBpNeX1iKp28Ry5HyIpPzEL4d6WvtJxdtrHdC4ucGSkydpG23KugdnbFhkkDM49oMAY/pG0edUu0/AcNiN7Wa5IkpodOTNIHuJnyo+k6MKoyMwk2bPbaKnzrh8O7kKok8orNdRwvY5bU2u8Fq+zAguAQYA1SSA+skCSRM6V6vQ1r5ESAJzDEYwuMgAVS2Y7kknYsx1MD9aIYG3aRGNxAxAJknfTRQINUnUDlUmEsNcZUVGckgBVBJPoBqarbGVMmGQNzJLnELRAUWQBEMREn35fwimbsljrL3xcv2cxt2wLWaWGYQqEWwMpMTyideVFOz32cXMwfEMMOvJAq3LrdfCZCf90nyrpnDbWHwds9xaS0JkmAXdj94/lsOQrSwKmwB9pqj3itzELi+GzOLdxRc1kT4SP5Fy5QB6k+eta3+z1lVUoGFwsoILAqMwJXxadI8p3pzucNbGgWwiBFjM4Ch95BDbg6bxrrtW+O7F2LK5jibiCcyq2U6ggiMoDnUDmaZfTnHsvbm97isqdQMllhd8VtU5t244RftWAe7bLnGcyrb6KNGkyxGgpT4/YcrYtpbeFtZiIJINx2bWB0iusXFLNmdi5B0J6eQ5UE4lgpw5ML3gQFmJJGYRpBn8DANJQsMekcRrEarnJ0ZkYOJVlaQYiGUg/EGinF7TNcm0PBfy3FA+8ZlZ/lbMPdTZ2Z7oM9m5bLB2F3MyjKAUUkEMIBn5abg0R4rhwt3Dm3lRCzAosc1GXRdBsZ9YodO1ztW8KcEwkWydS0KD00Rducaz760xWEvSTqBEDSdZGu3lVns9xBbqFtZMEgxIIUIw5DdTV/GEd1cA3yNH9ppgAIEX3iLxLiFpJDOrMR7M6GevlSXjXWZtplB5Z8493hB/GrmLvkaabVXQc415ADU++jfGt0s1SwFmXcNfF8LZv3FsW1Ht5HIkTlkKCZ3EnTWdKZuCfZYMSpZMYnURbzAj72bOABSgMIzuLaKbjxAVRJZzyA6ACfca639l/Z/H4e3ctXMllLuofMGu24mYABUKd4ncetJYBdqjV9x3P3iXwbspctYsIysy27hVmIyyVtsxhdZHjXxTy866MmAWBpRjsvxrB4u61vC3WY20JuP3SrOYgTLLJza69OdU+LMli6bQZnAA8RHMieVLJr9U4gX7YO/wCHCas2eEZ2CggE9ZA/CtrOLU8xV6xc1BBHWsGkzNxJrvZG8w0KMDybUfBlrCcBvWbpuqo0XwRlMuEyqAo5ZtfdTBhuMucqtbUzz1A+dEMTazqsKAQ2aNNwrZfdMVtCdc51inhzcvIoyt4H21YhUDAnWM0EmZCa60O4nh47vYEIC3tCT3msQYJkchAEnYU58awti5Zti8CqurAldwXEAx1BiPQ0JxPAbdu2CuIzDURzI01gSY01A3BE6U/GyLzKFyjTvEwcNW4L1swSypESYNssCVkaxn32M+c0Dv8AAXLG2GUsJj7rKDEqwnXaVMEfOuzcL7Nqi3CLgfvQIZlkwMsc9jB002A5VLd7N4bRjaXw7QAPKZGo+PrSsoLtYmNmW+JyLhPAe61ElvkCelewPCm7wYdQpuOdxJKqZJZ4nKup12k6bxXXMRw3DkQbFogDnbU/iKr2rVu0It20QdFUL+ApAwshvVNbMriq4iZxDsZfS2WR1uMBOQSCfECYJ3O/Sh2CxqlGO0bzoRyroNzEmkrtVwkXM1234STFwDmfvfHf3edI6jAuQbzceVlUKOLJ/MscMxIMFT5aaVPxDtfhsM3d3XOaNlUmJ2k7Uv8ADMJkBuXGIVABKiSSQTESBspOtKHG+Mh3ebFrMdSziWggQZEcopWLoaO5tYOTqe3B/M6FxDtlYvYdigYKTlzOAoBEGd/nXq5FcxBgLplBkLuJPQGvVfjREFASVshY3C+P7JX7KO7upKCWUA8tTr1igmDxbW2zo7IwBhlJVhIiQRqN661iUVmAJJW6g1O5MBTPy+JrkOMw5t3HtNujFfgdKLBmZmZWO4/iPz4VVVZe/P1jUe0zW0V7WJvG9l1lmZVJHikOCG901HwbtVi2vh3uu9oGbyloTLsZB8CmNiANqUy4FMXBOHm5g2AOtzELbjqAuaPjGvlTnYKtD/MUgJadaPbRls2mw1nLZeJY+0M8BWyx4tSNSfd00uOzMWdizHctrQrAYuzfW1astmyuBcBEFRb5FeXijy0NMoQ71yCC5PeVEtaTVC/h1eyEPNRvqASN450dYaQKr4a0QiqYkKBoZ2EeVUACLJi3wvh6Jde2FWFt2/ZBG5u9eUAVvxLDqWSV1VwRr6j86IW8LcS/ceCVuW1AM7MjXDqPMONf5TWmJsOfqaAgBam94u4G3l0UwIA5aRPlR3BYR7h7sas/hAA110o52R4cGYqyoSQNWQMAJ1gHSdvnVk8YsYVnvMlsZNAysyg5wMsAkgEg8uU9KgJ0ncyzHiOT9IuKzfYvcym5exlu3pLAWi4A/qLrSnxrs5Zsgrh8Wl550i0405w4ZlnnvTtY+0W3jGKtabOoMaymblGpG/ONhz2qpdypcN7MTOhU203iNBEDr7tZpj9V6Zq9zKun6THkF5PsOAYq9j8KLDXcyMMa3hw7ZSyqCPE8RAIB1zbgwNzTNxXCWbEXeJcUvXrg1Fm03deg7q2ZH9UqPOlfGcasZFwr4e0wzDNdYN3s5gcxctENqCqwNT0pn4LwvBNZbu7FmCWU5rYdhq6yHuZiPZO0RQHIBufrF5em0mhtvW5ujAv2UcV7jE4gAPkuKMo8MhQzZc2u4B2E018Yu57zuswW0noAAPwpc7FdnLtiXugZ7ngWCCIQBjrzPiB08qdzhNNtedDbZHI7D+YkqqIG7mAUtmrmGYjaiJwteTCaTWekRA1gyxg+JOIBOgMjy9Kb8FxVXQZrqhueYf5FJIsGtu6Mc6atgbwDUJ8exRFmz/03HdgwVV4MCR4pg+kUp8ZxqhLfeW1ZVcssoCJMA6bcqKFGiNdBz1ognAVvWnt3RrcQNbYDYgbb78+Ug0aIGe24iOoysmP283L3ZXjNtrBcsgSSdGYlWJJJZWJIzGdtJB95jAcStX7fe2XDoSQCJiVMEa+Yrh1oth7zq58KEqwlhJEiVgHXTy9RTf2VxGIXBi7ZvKoe7cJS8Gv6qVXRg6kTExrVL40xgm+IrBmOYgAb/WNuJxI1UEA8gdyN9PTb3VRxF8BZYgDrIoT3N5ouXboD5SP3awBmEGMxJ+dDuL8DvXYBxJgbAoCPUwRJ8/hULZ0Y8z0hhcC6kfFu0kSbQzxtqPERvB8utJ6dqsRdd1S0p8YLDvUGxECSfZ0Fb8Q7N3JytjLJGwU5kHpufnO9b8L7IvbYurI0qQxVzpzhVy+LUdRVinp3ZVBocEn/ABJHXMoLHfuAJV4j2ivuhtm1bA1BK3FuGWXT2CdQFkVRx+GS8LblSc6ZQyCStxZ8LrzUj3iDVuxwO/lfIbRyNJYORqC7R7MZlnUbD1mKWEuMmIa3lhS3eZSAYOUyBy0LEUtxjUEKbrmCUcsGIq+D5Ev4zgiYS2DCuzLacOwEoWYEFRrA5c69V3tt4ktgCc2GtxpBkFtI16da9QKwqNKz3DuPd/h7xtpFyx41UmcykGRp79PSkDiWNa9ca68ZnMmNBtH5Vf7KcT7nEox9lvA+2zafIwfdWnGeDsmJe0gkTKR91tVj8PdQqqobEaXZxRgi2hYwK6HwbCEYK2Fkfv2cmSNAsaxqdeXOhHCeAQMx18UQIJzb5f6o5ctzFGO0XFGt27dq2iggFiWdBkJGUrqdWjcjbWKWSWO3EIDTN8FxIYTEWjpGIuHvW08MAIFB8mOY/DWumLIG+tch4HgTiFRLsH9/n8JVpVvbjKTHi193rXXVujpVeEbSbKfdckRPOs5ompFiNqrXLsHan3FzTPrNbamsBvKpLbnnQEwql7hdwW7gPuPxFcg+0zjE4j9ntE5V3gQGMBRH8sDQ9DI3rqg9da5FYwwXEBsSsXS2gJP8TgZn32GbadhU2VQDf2nodGGYMoNDkn5eIa7N8NFq2fDDNqZ1jymjSOoETqTGxOsTHzoRhb94HKcvmSIjT1qz375QwyTvqCeUdeleY/SZ2JP95UerxfT7RY7W8LOYXFIHJidBHUmj3Y7Hr3Fy1mVmVs0jYyrSdfPeqXE7rupDEQdIyigHDsM1ti3iyMYU8hBBIJ6/708Y3XHpf7TfVTJbKL8/bgzqPCWKJg8O3tW7WZj/AF2ssfG0aYKEW7CqbLCSWeSSZOtp4HoANBRlBVw3nkGY3qRLdSW0B51at2dNK4zBK9qxBB896Z7GCRk1mDqRPPnQMJR3hNyVjp9fXrWGEJra4TbUnwqQeRUH5mg/aziK4XDPcjRCCANNAwgDzimg1y7tlw7F3MamHYi5hL962WBIlFDLnA1Bgwdp35VqEA2YnOhZaAgX7QOGq+Gt4y2wEKAyhdGLnMlyd4IJOvUDca79hHc4C1bdIm5cdT95LhDAx8R6AU9dordsr3QVcoXJAELliMkcwNCOlJ/GOO4fCqDdYAgeC2sZjGgAXkPMwKX1GXUukcx/R9N6ZLNQA4hfEXgqFjy+PkKpWuANeOfEsY3FpSQo6ZiDLH3x60v9ne0l3EJdxN9UXD2JMKCWLz4UmYJgrEAautWrX2m2QpL2Lkh8hFso8GG2LZdPD8xUy9JlVS1X/a5U3UIxC3UPHgOHQAd0kEwBktqB8Fn51UbstaUlrJNpuQHsHyK6DXrv50NtfaVhTqRfGsxkWPLa4frpUdz7QMNedLFpb2e6wRTkUAEkak55j0FLZc3cQlbF5qEMfZVLbM4hVUlgf5dSPlXNuFYZrlxMSSgQZs/ig5iW0C8xDD4eVM/bftdN+5hEtyO9Nu45IjLPiygfiehqh2KwFvNetuA5XKyNvKtIkHpoPeapw4MiYmY9zX2k+fMjuo8CWeOFSLG3/RX/AMnr1GcXw1WIlRCqFWDrEk7EedepbBrnKRUV8R2YspbdrdoSupLFnkaE5ZEHTnt60T7u22Xc5VgErrB8wsGPqdaKXLwZcsiCIJkSeUeQ8/8AehOLtXGtZREroGBIjprVrY/EUmTzIO0WG0tLbzBVUkhJG8GYESN512HnQziVm33IS48qNG0iY2ZYeFUAzEamCeVTcewbu9o944AtKDlMSZOnv60Kbh0tLiTsJJMDoPrWpiSDKg9qFqQdmXuLeLk6EZBGwH8MDp+tdFwGKbSTSlZw8DQAe6mfhy+AE/WtFjym6iXQVGGxekeVZuuYqnhb8VY72ap1RFSS3cNTE1Fnj6is959a1hadpmw3iOdK3E8MH4mNBktjUkSCFWMw9DHxpoS94h6/mKAcTtsc91MsqpzTuRJYjbkACJ6mstSQW8x+JmUMF7iv3g3GkZ2I2JPw/So2bQf0/nVLjuMOHVXujRzAAIJ2meWmo+NR8CxX7UG7ohSpAIeRuCQdAehphcXE6DX/ALJm3k8tqzgsD3mGKpLd3cF1xI37o5gD01HXnVbixaxdSyxUs6s4IJIAAJ1kDU5T8KJ9jMcr4e4gBRjmJmPFKjXTbSB7qTlptjHY7VSQfG0beHWXORngBVhAPQDMT1jSBtJozbFUsPeGUDyH4VZt3a0GhEnmWUaKtpcocL1Tpfrp0vnWpsKNdyD5SNOdVbNyT9fXOrtkidq6FL9xbigEPI6RPpvNAu1T3BcBZEKLBRh7fmNaY7KaSN+h28qT+LYlrjO2IslDbYJE6MrhpCsOWg139KGcDUtcT4azWLjE3QcxggqDkOm4567j1rjnaLsNicPcyEG8LhkT4s5bRWPMN58utdms8aV7bWgYjRVKmcumUZs3LbUfw17G2jlU9+JHhhw7A7EQc2mnODrQ6BUIuSd5yLteRhrNnh1hyptDvLpEkPcYEhS0zAmYIPtL0pVxeIQ2gxRVcOFeNAfC2U+c6+YiOlddx3BrRYtiMPnUtHegC4vqWJMddaCcZ7L4e7+7sWxadGFxzKKjosHSBqSCCs9RTEzsoK9jBbEppu4nNMRaIVXCmHmNOkT+NGOweCe5xDDTbYKrFiSOimPnFdK4ZwfBoqhrhzjRgyA68ysLtPKdqIcJ4bhbQcJi2zPzZDodYjKApykmJBiT6UJyAipwQiKHYXswmNxOLv3AzZLpe2I8Dd47ky06mI8PQ/BhwfZu3YuO9vMsz4DqFJILZeYBI26009lcRhsJZFnMqayQAfuqqk6fdUD3VjjPEcO/iS6ub0YT8t645TRW9vEzQLut4uXLRH18a9WzYlTsw+NepFiMqU7GEncD4VDiMGWEIuk78ielE0M+QqrfuwSJO0D9KuzDIVpK+8RjK37oFu4cSQwEjTyqm+FAO1XblyC3u/OoyTz2+HxqZ701KE8yqlrMY0j86MYOx4B6a8utVsKoBnT4Ci2HHhil41AM1zcit+VW7NuBJ1ryINake51+VOi5pMn/ABWSKyj+VS5fKuJnSvbManlqSeUc/rpQnCsBayNmLd2Axy3NTqCZjWetGcShKtH3Tpr0NV7I/djzUfhXTgeYrdpeEC9aRJYBfZ0Mbc5G+lCuzeAawHKySXUwInwh5H+oU93rcqOdR2sJAMAbzMa+YoMuvTaCzNTTfugPEFLxDXLOoBAYgSAQQRO+skR5mosHw0W9EQxOmo6mCdaZDgZ3HqfM6/CpVsKK3QzL7uZ2oKSF4lS2SrEyeXWJ9Kt28WY1+vdW9tRlBI1k/IxWrouulAwK8TQQZsMa3+antcR+vnVARzmsrFL9Uw9AhvD8Qq5Z4lypcRuQ/wAVatPI/SjGQwSkcsDxMnQCq3FD3jBpKRIIAUhuWoYEUHwGIiDU93GyTr508EEXFETbE8OUReUKIIDQrJIJA6lTr0C7mh/F1KppcVs2kh1Me4Ny8wPnRc8TVrLWzMkrHudTRfGhrtvKlkzGjPlUDziZoWJCnTCWr3nN7d0kFdM3KY2PtCNvMehqa/muAKFSdtiJUkmBBGoJkep8qzilljmABDHTKN9B120qdEXuWOVZzCDGuxqZSzD3cxzBRxKOFwrORAWZgTIHl115a+VX8R2ev2zLW21O4hhJ21WfnVFcQAZyrI8gKaOH9pVNsW7iuTtIY7fERHXyoVCnYzmLDiDMbwe7dcm2AdAIDLO33Zmg+P4VdtMBcRlkaTXR8FiLQtKLuSAWBzjo7agkQfdWON8FS7b8GhjwnM0D3TAB22pj4AbI5gq9bTk8EHWvUWxuEZWKEHMuhBr1RMDccIQ70AUFxd6Xb8taJ3W0+vhVJcNrmJ3/AAr6FzQnnqIJtZsz6E67xAHQee9TCwTvp6e/pRQrP5flUa2qiZbMoBqQ2LIBmPqOVXbCzodvh/tUAtzsfLp1mrtpI99aq1MJmx8on8vr8KhYHnNS3Drp/itVQ/n86IiZJbA2q4F5RVS09WbbzBHSgqdNMRsfSh+GH7tegQRr5VexR8JPkdfdH50Mw1+ba5eSgfDT8aLYTJuVgc/T3/Wtb2dZ+Xz5fn5VqVJHKrNq23v9ef1FGDBqRm7JPP5/X+K2K7HkK8LBjl9HX6863MjSOU/hWzpDbOm3Mz8fr4Vo55Go7OKkson22g+8/gfwqcWvIfQikZONoxJTaTtOnkfo7VlGPP632qY/X19bVp3fXnH4fRqbTG3JEb6/xUhMAjpt+NaIvurcrJjmR8xWzDJbdwjw9a2dyaiUQf8Ab6/3rd9h1+ppgbaDW82sYkyP6hPxFFj2jvZAity3gT8aWsReFsG4dlE/Q6bVrauM4BHhB1HWuL0JoWbYm9BnczUIvtEHSamKgDzqsy/XodaUSYQE3A00qfBtDryBYT8RJqtZHSprbKrKx2BB+B5edAo9whk7RmwnHmt3WTNNsnY6gSdSIIpmXBWmAI0V9VKyup5GNx0Bnp0rmK387Nk6kyfM058F46osrbuW5gRKwJ93WqFye4gxTJsCIP7V8Ie2wYaof4uc9G8/MdK9W3GuKO7FQ5NsxAOnQ6+depGStUNSan//2Q==;" vertex="1" parent="1">
          <mxGeometry x="590" y="90" width="208.71" height="151" as="geometry" />
        </mxCell>
        <mxCell id="f5R2noHbCyS-vPVK68VL-2" value="" style="shape=image;verticalLabelPosition=bottom;labelBackgroundColor=default;verticalAlign=top;aspect=fixed;imageAspect=0;image=data:image/jpeg,/9j/4AAQSkZJRgABAQAAAQABAAD/2wCEAAoGCBUTExcVFRUYGBcZGyEdGhoZGh0ZGh0ZHSMaGhwaHx8dHyslHBwoHxwfJTUkKCwuMjIyHyE3PDcxOysxMi4BCwsLDw4PHRERHTEoIykxMjkxMTExMTExMTMxOTExMTExMzExMS4xMS4xMTExMTExMTExMTExMTExMTExMTExMf/AABEIAKABPAMBIgACEQEDEQH/xAAcAAACAgMBAQAAAAAAAAAAAAAFBgQHAQIDAAj/xABEEAACAQIEAgcFBAcIAgIDAAABAhEAAwQSITEFQQYTIlFhcYEykaGxwQcUQtEjJFJicrLwM2NzgpKiwuEV8TRDJcPS/8QAGQEAAwEBAQAAAAAAAAAAAAAAAQIDBAAF/8QALhEAAgIBAwMDAwMEAwAAAAAAAAECEQMSITEEQVETImFxgaEykbEFFCPwM8HR/9oADAMBAAIRAxEAPwCdwjph1mGuJqXFto8CdJ+NV3exEOTHd7hpUvoxi7VvresYguoVdNOZM/CouOtAkkVmt+o4y4rY0JexNckfE3M2tZ4b7Y8jUqxwHE3CAlm4ZXMOzAy6HNJgRqPeKncM6M4hk6yFtkXMii4SpZgAxjw1H9CrNLS0iab1WQRo4LcjRJrdu57Lj3wajcVwt/DnLiLLJOzEaH/MNKiqiNsY8DWXJjbpt1RohNHfEcOPnWmC62y2a27W28CQD3T3+tScLhLrhuqaSqlonSBHfz86Zl6M3ySiZLl1FVrinse0AeydQdeRrlr01szmoXvsQMD0uuXbb9faVwoIzro23dsfhRK0qJw42iVFwuGyxBgkMOWukH1pUxeDuYYXbd9Wt55KggxJkb7TtWOL403bSkntdaCI/Zyx+VIuljbpVumB5HSvfY49IFhlH7o+bVI6JrOKw/8Air8xUbGW3dOtZ17MKAxOYjbsjmBrOvfXXg18Wr9u4RojBtPDWK0S/wCOhYr3Dx0s4iyXVBEBQMpjSJJ+ZNFsH0ht3LcmVbQd++mkVlThsckqwJjUbEeYpc4zwC5YZblswVMg8pHKvCx1FpT2a/NG6TuNIceHYq1caUdTrOm8CDt4wKl2nl7kalQB8CfrVfcKvJbuoQpJAPWgTCyTlJG2xJp54I4YXCHVxnABXURANa+on6lutqRCMdK5OHC3S4r3ATnYw4OmUrplil/H8NuNxIXVWVVELGY/a9+9MWDgtdYDQ3TB56AA166sXX8bf1rL6miL0+KKadVWIX2s2v01t++2B7mP50kseyPWrA+1ZZS03eCPihqv/wANer/TXfTx+5nyfqf0NK3sfi/hNaTW9n8X8Jre+DIuTNv2H/y/WmzodiimFvxEgOQDzhQYpVtew/8Al+dEOC4hlt3VEQQQZnmp7uelJJbfcpGSSr4OWE4rfss723KNdWCQBqp5CRoPKj3HMXcY4drjksbUSd4UafM0Ct2Wu3bSQfwKBtIJ0980W6Uhvva24jqwUgagEZgfiKEt3R0U0roYejuJ67DujHW2CB4jlSFjbsog/ZkTTD0Kvdu4pO4PvBP50tXF/tB3N9TUeljpyzX0NHVS1YYP6hroi+l1RMwDp6imjhFsYrB4zP8A/XoO/vpS6G3IvEftKR7taZuheKCffbDaZ4YT8fpXoZH/AIH9Tyo369fAt8A4fF7XK6EEEbnXaRRHiXR21BKq1twRvqhHMd4qBwJwuLZZiSwHcYkimrhnE3xGjooEkecV5c9and9jXDHKV6fAkPwhztBbNGUfPyrjxHhdyzBuLE7U0C1kvsCIYHkdI5V04nbN0akGNsxqsckthlFONvkT72FAQOGB7xzqLTa3D0KQTbkiNDSxjcK1pyjCCPl31eE72ElGjjXq9XqoKer1er1ccZFSlVgQO/TXbWiVno/cZA4EqzlF11LASRETsamcG4XcN9bRGoliLswFXUxrv3VnlO+CsYtcjn0axzPevG4SVUKgB1AUhifTWiWKxNsBUMRIidp/Og3Dk+7FmZh+kCtpoACGWD41w4xigVBjZ7fxA+FUg6juCXJYWIvIQUuJIPIqGDD6etL3GuiuBKsci2zlJAGmneAe6juPutkAQKzAiQ2gKkHnyOo3jnULiNiziGRbq3LVxAcpJIgFSDDey2k700qa3RytCEnB3w6sLTAzaaAAyswcfsuSTInYx5U9cDvF7rxGfq15bjskA/6jz51ws9HWZWtviOsUD9GWEOjaRB2K94qFgFbD3jDTclUZHg7ldQxILDYgxtp5Rj7XdbGl4o5F7Xug9xa8nUub9tXtrGZYB7J0J7UCBvPgarzG8BwGKZrmFZ1RNXCQRA5wdQv7wFWEuFuKWCMVzEsUeWUzJMHlvyJ2odw3C4a1eNw2VS6AVZ1GhVzJBjQzHcdqo7ZmVFY8d4W6nQdgezEns8pnY0HuOVEEEfOrO6XP1SsujWiMyMNSIGqabx466ili3w61iFBDLJ1GsHu2rHPK4SqS2N/9vrinj7qxcwWLdbim2xBzQCNDTzb6TlVK31LjQGBqAdjOx2pdXgGS6EZgsiQddY7q7/ejiVK3rpOQBEMBjC5omInnUsyhl37f+k46se3cO8Mu2biY25bjtJIMmT2TrHI0X6AXR1TqPwhW95cf8are5we4rE2LiXch1Npu1vE5dyPKasfoVbJtAsMty5ZIfSCWR2WSORAakzYlDHLS74/Aqm3JWiVw8yqnXtXWaPf8Kl4wfpD/AIf1oHgMVesO9v8AtktGHdATGaCBA/EI1Gu9FLeLt3SXS4rFly5e712rzskHppeDSmrFn7VrcYezGwfL71n6VW+fSKtP7U7c4IH9m4nxlfrVVRXqf0h309Ps2YuobU9vBkCs2+fka3tqMjGdREDv7z6VrZA18jXpkKqjC7H+u6p3DHi3dHgKhqvZNTuD38i3CROg0Hnz9KWXA0VuGOh+KS7jLIuyACoB59gdkfCiHHM9i8hOWbt1nM6mATlM+Oeh/R9WbGW2tottus9n8Krl1M+U1M6bknEp6fMVCVWexgjcYpq06v8AcGcKxSWMW7OGKQTCxzA7/GhWKRS7NbDZGE9qAQTrGncalcXWMRH7v51FwTdllq/Twi5JvueV/UJSg5Rj2br9yT0RI+8JJjRvkaL4J7aYi3cziXuujAnTLsDS5g89p7bDdtvXs/WtrqPaulW0ZWBOnrzFWuMo6L7mPTJT1pbUHhYTD8Rt5wchaezzVgwEetT+jN2SQqklbj5R4bgHxil7iGIBxKurSJXXygH40R6N4k2711V0Yk6nu1/qay5o1sel0krb25QV6RWGKrfgpOhihgW0w1LE9/Op+Bm5bOcjWY1kTO8VO6IWVS9ct3cjdxEVKDsObGovbgEDCYMCSH1oZx8W7gBtgwo570/cTwOHti4HI7amC2wMHQd1VK9xtQWJHnVowdmaTo0r1bBe/asFdJq1kjFeqXhcOrAS2XXXSdO+t71pVYgDMAdD3ik1pDqDY7cBvgXLJmYuMe/8JpnxuLR+0VhwCNYnXTTmaUeBXlbDLmtqrjrGW4BGqiAI5Ezqf3ahYbiV25eAZnEiIkFCBMEiNDJ3majiTjFplclN2grisQLhI3hFHqAxmomME299jaPjoq/nUbB3TnuT6/EfWt3bsP4BP5UFUi9hWXNZtqyISPwjXY7DmNaicScWUj2gToDGk8tvOpnDDNq3/Av8q0v9MMVlLRrlRj6xp9aq+CXc54dyMnaIzLmMbCdRptsR41rxvDNdVbpyl7bISVkE2yQdQdiDr5TXL2Xt5jplCanuUR6yvxpjwmVkNueyV9mNYO+vqaSlJUykJuEk0dOL3slpjzMAeZMUpNiQFY82uFR4ZQFT0zZqK9OrsYeZI7QmDGxB9NqXzZLIgie1mE7TnzgGPHSuk9wRVhPpBgxdwFwx2lXrfZgSF11jtSoqnMdjGlCDEoNIEbsNqu7CqThrqQR+iaBOaJVtAape/hWuYUYhnHY6u1liDENBmeQUDbXWhpTaZpxdRkhjlGLqt9uTvwvpBctHUkjlroPGDMV0vcQQuSci5h2sg0MzzGncdh5CaAohYgKCSdgBJPuqTc4ddV1RrdwOwlVKkMRvIB1IpXihdnf305VrSf1X/YV4VgnZs2H7boMxH7oIk6a8+VSf/LXmZetJKL7SZiqsp1jQzG29Qei73LV25lfqnyEdolRuvZMfXSjPEuOlrBt3rSsVAUXQo7JEHRxIMjkI3qOSG7QJTjL3RVLxdjzwHiuEVAltVtLPswAs95K6T561rxLg/WX1u2Lig6dYsZgy9+nOPpSxa6FtdsJetYgq9xQ+ogS3aiV2GtNfQ4vbtWldwblpms3e4swDof8Ausi/p9u9XIXmrggfaJbnAXfDKfcy1UKsYI796+hOktjrcO6NY62SFZFYKcumoJjUd1V/xDoMptZlHVDMxXNq/cFcnxGmsa8609J076aDg3e92Sl/lltyV6dq1tc/I10u2ysgjUGD5jetcKmZgsgTpqYGxrauBMiqSRtl7Oh5V34fcyq+UwShBnaCRoPGuNhhseakesafGiHRjCfeLpt5gsoxBO0jUClYVV/YndFgPvCEszCSQRMmAfhy1oh0sm5iEYAwSsDnoRWuB4Hjrd3rFtBzJPZ9kzM0TxPFhYKl7QVzo4eWgHQxOxHLSs071X2PUw54RhFLlCn0kMYoeS/WhwJV3A8aLdNrllryPafNK9rfQg6AzzihZUPcBBUTHtEL571ohsk/g8zqXryyflmPvjA2yN7eq+YMipGMx73rha4QWOpPj9BUC/bKkg/mKyu58qtHmyHCo6E9pT3EfOmi1g3GKzqIVlzHXlsaVMpOWNZpptIRetMXUZrexMHTl76y5m00vNmjpp1lRM6ubV0SIGaDQjhJBttAPWb5pMRTHhcK6Ye47KMuaDJ1g6aUv4K31WICZpFwbeBOlShKk132Zozq2n24G7o5hxisJdsu8lIeY111/Oq44rhuqd1O86eUxT70HudRjbtlvxKQJ/1D5mlfpHhSzzzFx0+JIrVum/8AeTHLgXuVbHaiPD+HF2a2dDnCz3SYoxxHhiWb72gDlKoSfOZIoOQqQF4HiTbcwM0jYjkan9Sx1CGKk9IeHJhsVZFv2WUb9+xPxp94bh0FsAqJqc4W7KwyOCpCLwpWGDVoIALD0bMfpUTCXTnOuwn3EVN6/wDUhEGCoJ/ytQnCPOc+H5/lR+Tibw0Gbn7qKfUtbX/lU1tro7gvyA+lQMGSFvsDsBPiM9rb1FEFGl7wj5sKKFZcPBm/V7X+Gn8q0l9NsWv3jqzOZgNv2eySfLlTl0fM4a1/hr/KKTOneE/XLV0rKZSGHkCY9RIqs/0iLkI3VVxlZVcRzEg6R9aOYW0FNsqeyybbxGUDnSdwe9cCMYktbyaRIuWmcDnGUzMjuFOPBCWsWy3tKusbSZJHvpIO2Mxe+1p2XBqVJAN5A0adk5hv5xUDohd6y1ctEaozgEnYTng+QYe+j/2hIGwN2QDBBg+DA0A6Lt1eMv2WH9rbW6vyPr2j6LXT5OgMvRu51tiYjMpUzvzWqcI//HlFkt1qyo3CLbZixHcJ3q8ODW8qkfvbe6qduWgmFv6ai66eQ6pRPf8Ai8qPZDJe2X2B/QLCG9i7aycupfxUakHwMVYeL/WbzC0/V3cPeEsyhl1UMRE6gz4GRSJ9n2Ee7fuBL1y0y2yQ1uJ9pRBzDUa0xDhmJw913+9BlvEdbNpJYABToZE5dNNKEmJEV0wtxcZdR1h0ViwX8PVoG7zsF11POrH6N4cph7WZgGuqbhBiDopOm05d/KqvxCMmIvraRrcK6lIyELlKuMoJjSdKecIr3eE2Gtswu2wSjA9xZXUzuMv0pJxsaLI/THpNcsXursXLYTICsAMNddDtz28KjdF+KMzYy2zEu1pbyHvuWYflzIkeQpHJGXuiaJ8KxfU4u1cOysJ/hIyt/tJoqNAbsvXCot5UvLqHVWBEqYIkajeJoNiMaSzKxJtgQVOsiSDr6VK6AXCLFyw2+Hutb/yTmT/afhQfilkm5etk/hcL5qwYH3VST2sC5EjprwUYbEPcdS9q5DIVbKZMfHet+htpTeuqtsAFBMieySNYPzo/00w3W8OzuJaywAIP4WIHrqK36FZRftaCXwSHzyt/3WTNlUFwXinN2xY4phbQBRl6p3OUsqyXZSSDB9idNFiY57UPshsDft3dzv2hoeRBFXAbNpjBRZmIYAjmRVa/anhxZxFvq1RQyToOc67kxQw5lNKnz2Bkhp7Dvwr7Qle01y4ipljZva8gY2rhhumWBusXxDpm1CwpzIJ5zueciq64dw43rbi1fysygOlwZQdjAbXSfChd7h7o7I4CsonvHfuO+tC+WTe3CPcVdWv3WTVGuOVJ3KkkqfDSoyoSC0GBoTynuroiRHPXYbT3TRXgl61Yvr94s9ZaAJNtuyCTs2u8VRy7E6YFJmu1pdCdO71rtxC5buYhmt2+qtNclbYM5VJGk/GpmP4dnxLpbGkZhzj3Vzyxi6fgKg2tiDasMy9mZHKmrhQwzpb65HFxABnB5j51HwHD1AzFiCu8DQx4VB4teQMWQyBGg0rFPL6kqiXWLQrkOfE8PGGYW261dwNA28jakPil7LeR9ZET4EcqK4HixK5rYyxuNxQfEA3yzSAcxo4FJSevihp1pqLu2Hr3ERbxlq/PZIWY10Ig1r0hcI5YNIa51kDun8q4YTh7dUMyFso3Hvobj8asEZDJEAk7VqU4yqvFCSxVG2wng2zm/etxAKsAdDI1qbi+Ii/eRzp1lohx3FT/AO6TFusJgkSINezkQQTpXODIpjJ0yxXWpabMCyErp3aEGmbgnFk6i3muQ0ajxqtC5NYk0VF0c2g7glAwl1v722o/0XmPyqNg9Q3iQPj/AN1ztluqidC+3iFMH/ca78OEZfF/gIP/ABpOw6O9h4t3h+1p/uB+lFGf/wCR5fIvQjDbfxMB47zRXCariP4Af9x/OiEuDo236ta/w1oX0tQZrR/e+YaiHRg/qtn/AA1qH0iBZ7SgTLjTyj86pJ+zcmuRP6KDI96wxJKMDr3QFJ8oC++n7gQ/Rn1+ZpLxFs2saLhBC3FCMf3iYUxzExTlwB+yR4kfyn61PG03sPJbETpqJwrjvKj3uv50o9KHOHxWEvjZBlf+AgI3uDTRz7SOKnD2EygMz3AAD/CW+cUJ6Q8UD2bty5bEW7r2VYaaDnBnuiKXLKSlsjoJDrws6Nrz/wD5qiOk2IuJiMTbDEJ11zTzYT465F91Wt9n3SC3ibYCoyuqQ0wQSvOZ31B2qrun6ZeIYkf3pPvhvrVIO4q1Qs9md/s4xOTGAH8dt0HnAcD/AGRViYjimHe3ZZM1xbtwWiQoGVyGOoJmOzBjaqh4ZcdLi3Lft2/0g/yQx9IBnwmrr4NctXbaXraqq3gHkAAyd80bkGRr3V0uTo8FW3xcOLxIcy9x7iZo72IJjvyjTxo50GuZbNy0zEZGkfwE93IyD6N5Vy6XqLNy7dCglb2oMwZn86FcK4wFv2nymGGR9dDJ8tdY91RyKT4GhSAvE7TJcZSIkyB4HUV0xYHWwf2gI8Kk8evZ8SJUqFfLBMiA3LuGtc+IKFvOCuY5iF1iDnXXx0kR4+FUi20r8Afcsv7P+IE37TEyMThgG/xrE2zPiVE0X6Q2WF8uggBS7lj2SD2W0ieyBJ8xSF0MxvViCwBw98XRM+w46q4seJjyJq1+PmLYcbA6+RkfMinW6F7i7h7K4mzdsja7a2PK4JBB7iCAfKKV+it8jE4ANoThmtkeK5vqtMPRnFRcVXnOj5T3QdvgflQTpLbGG4rgwNB1jEeV1jp73NYupi5RS+v8MvjdMa+I2SLgYcwQfAjtKfnSN9qy50w93uDqfPsmnd8WLjAEQUuqPQtl+tKv2g4f9TOnsXfmCPmKydEqivh/hlsyd0/AvcJwIe0SdSQoE+I8KN8TwYTC3FACwhII1PjQ7o2/6Afwj4Zh9KYFH6ACBLzE6+yPzrW5PW0x1jj6aa5YgcJuBVQtGVboc8yYERTJx97N27h7kjftKeaET66igHF+H3EQXGA7ZzSNoaYEcqb+iKLdwqB4JExInyp5tfrXkzxT/SxfxARGm1YWJ9sid/DlRHABgxe4FkgAxA07qYk4bbNuDblgYJGmo50Pxdo2tbap/p7X/dDVqdNUcmo9mZxGDE5lG+9JfSHCdVcYqDlbl3GnS5jFVUzsAWGk7SOU1DNm3iCesJKKdch1PgKhBShk24LT0zgIVi8ybGK3s347jz1o5xrhloA3LC3FVZlbsTyiKXZ1r0IuM+DG9UQh/wCZvAjK5Udw2rizlwSTqfdJ1qN3V2t3IQrGoYEH4UdKXAdcuGziK72LOa25AnKRr3TWFAZ5cwDqTTB0Rcm3ibUpkgMSdDpOx9K6T2sEI3KgThOEXLgYjcLIHlQ30otYxQs3OsWTGwJ5Ec6FXDJmN9a5NsElTolrdbKEPIk+pAB+QqfhBHVfws3xcflQ770xEMxMmTOpnvr33lhEE6ba0tNhtIJYVf7PX/7AI/zCjPD0/R4g/wB0P5hS7YxeXq2ZZAMmOcGffRPDcVWXVbmUOhWSCI2Ou/duKFMKaLk6MGcLZ/gHzIpL6d8Yupi7Vq02Ug5jABkLJI18BQLgfSzG4e2EUW7ttTAHtbyTECfHQxrQ+5xj7ziutuZbZ6twNYGYoygCT400qlGmDh2GOKdIMR90tX7kN+kZYjKDEQT46bgDanLoB0jXGITk6t1IzCQQZG4P5il/GYJcTwpLFtT1tsjLIAVmmWgztDH3UF+yHGZMQyE6FT71IP0qccUYtNcoMpN7MKfadi3fH2cPlGVclyeZzEKQfABPjUPiXEbbcPa1czrduvduroCpPWMxGhlSJ5jnXD7Z5XHqRpNhfUFroI8qU8bxB2RLcmLZ7Ovf3d1VatiJjV9kWMFvEMGYBSNyYA0YEknbXLQv7SiP/I3yIIJUgg6HsrQjg+Le25ywQwIZSBDDuMjY114/jmxFw3mVVmFCoIAyj+vfR4YeUc+B2C93KGK9ltV/hOniDt60+fZXjI67BuQTbJuWvFSYuAesN6mlHona7ZfuVljzy6/GpuFxZwuLs4kbLcyv/hkBT8Cx9BSOXuoKj7bCn2juitiEzjM5tsE/FBy6+Wh91KeK/wDjWe/Pc+YFNv20YQLiLV5fZuWys8pRg3/7PhSdiXnD2h+yzg+uVq5rj6hhw/oRj+Fv6kH8oo3ikP3xoE5buY+ChgSfdQXKTbnub+Yafy0X4+cuIuN3OD8jXPkHayXwQquIbM2VbgKjSZLglR4DNGtW/wAIudfgROrBGQ/x25Un1Kz61S2JtgW0uZoORG17+yJ+tWP0M49YtI6XLuRLpD2mfsqSwysqnnAAnxnzPQl5OcTOIslXF1WDhwoOVgdQSm3euUf0KHfapaObA4qIy3Ar+GquP5WoIbQvYJraOA9tr4IJgMB1d1R6gvHiKzwzGnFcIxNm43btKLlpmOsp2ok+Aj1pNL3TGvwP/HUyI9xBDCGn+EgzSx0qxK3sBdImZDT4qRm/mo9xnHD7iXH47SR5tlM+6lK0+fh93+F/PSK83plV73v/AAapO1uC+i2IyWCYOqMBHgW/OjmGuTg7N3cJcKtryaVn3xStwTFZbGWBs/pqprlwPiAZrdu636IPMCfxbzFb3FuTA2lji++/4DfStCMNadSptudpmIkiPCsdE+Kqtq6rEShGUHQZTofzobx68MjWk1tq+a2ddpOmvKhWAQlmy81+VPoi4mfU9RY1rFM2HDg7OwMekUOt4zrHyEnY6RqCOdRuj3ELdhWS7cUo4BYDXK8Rv4114biLN64Xtdm4JGViBM9kEUGrVhuiNxS3mwzMO0ydrkduUeVcfs8tJcZ+szACCAu06711trcslrVyFkxAgzPjzFafZp2cQ9s8wR6qaTLJxg2lYcauSTGrHYSw6suYhiCPPTaqlxNvKxHdVr8TTq7yJmBzREetJHS/BRiSo5mdu+p9LmcuVRbLh8OwG9uBMflNahefIimTgmFFy2bbH1NROC4VSWtsNQ0a6+FW9db32HXRNuKvlfs0BL2wqXwW5luglA45g7Uw3uirNbPV7hiN/hW/DeiV1SHXUgQQdN6o5qURFhccqbarvuBvu6uWERoYA7waDxT3jujNyyhujde2y+HOKTMZazOzJ7JMihB+ReqUXWnki1ljWa1NXRiOziEUz3jyrQPpAEE7mdxoQPQivM/ZA7ia0oRC2EOBYw27yS2VA0tMlT3yOcxHrUbDMDcBPfrGlcK64T2hQaCn2H3opx62lpQ121byMFKvo5j9nllAy9owKUuEY/qsQ1wHs5mJygTlJMxO2lDHrfCe16UNNIOqwj0l4iMReRlLlVRUm4QWMEknQD9ruG1C7/tHzrCbjzrN72m8z86ZCs3wntrW965KKoG2vqT+Ue6uWHPaHnXr6wzDuJHxNCrYVJJB3o28jKFOZFYmNfaa3B+lcsS63me3l7ZJyknmAYEcu6h/B3y3VnY6H1rN98mIzdzg/EGpyhu6NCyx0Jad73d9hg49xr7zgbVtkbPaiW5GBkbTl+E+lLqCbDfuuD/qBHzArKD9I6+JHxNcbN3Krr+0APcQ3v0ptxMk4NrTGtqe92/J0sj9E38afJ6I9J7hXEXIiZ5id1WolvEK1tLYWD1qknvEZf686k9Lx+sXPMfyrSpXLdAlSVJ3sdeLp+rWH/uwPd2fmKzwu/cTCXSrf2ZUhWAYQxEwDsdQdO6pzWs/Bw+hyOV8R25+TVI6N4LrMDihHa0g+BUflXcL7gu39gHbxTWcRmUkqyyAToVZNAeRImNqicJx72Tcyx20ZSDtqCJgRrG3jWcW027Fz90of8jSP9rCo2Qqc3INH1HwpklQruyzetz8ItH+7Qe7s/SoPRkB8FdXckXB7xXXhTTwgjfIWHoHkfA1w6BGbNxO5j8h+RryuljTmvDZtb2j9BU4KZUjT8X/AAP0qJgLay7nTICw8wdF9akYNUQujxCsymfIgH3ituj/ABO5hjcu2myuB2TAMSY2YEERPvr0q3dfBGUvYl4bCFzCXL2He5bYZRqynugbaUO6O4dLzm275M2qn94cqI8F4i2mbXrM2aNBJMnQaRqaDlCl5sumVj6a6UkZv3RKPB+mV7MZ+imAtpibq3QGthTAIkMxiDUzH4XD/eFuWCBm7JDLmSYhoKxlYRtQfAYm4MTD/iHoRUtrAtXp/A7zEka7/OoerJOn4s0T6SO2lvloIcawrW2tjqwS7CW02JEeNAeC4jqsfI265l95Io9dcl+sJGW0JiZJMaT/AFypIN2LpYGe0G9ZDGnT9SDXx/JmlH05r6lgdJLTpdtugDHMI79CDJqJ09tFb1q6w0dO7nUzGcSy4mxmUZHET4miPS3CWzhbtwj2ACNZ8NO6s/SxrGmWyTansI+Av5MxU1Bw95lvz+1PxqNhL8OO5gPjpXXGWyLdu4PwkqfMGtPp1Kn3NKzJxTXZ3+Rq4JxJgHQRlInXkaOcJ4q0QyFV5Odj5UkcGYzdg65ZFHOJ424lu3bjsgBs2sj8hQjKSbiuw/U4oSkpVyxsv8WQ2WRRLsDPlVLuYJHcYqz+K4Rglh7Zlj8jvQji/AVZwSADlEjx1ozzaErPOliTk9Ii1qa3rQ1tRhPV6vV6icerphvaFc66YYwwoPg40O39eFb4b2h51z5VtYPaFB8HHtj61697R8zXru58zXr3tGuQT1j2h51nEmXY/vH5mvYcdoedauda7uA8p1FdMX7Z9PkK5V2vNDA+ANFhOmDVrl5QBmdmgAQJJMAd1cLywzA8iR6gxUrBOUxKEbrdG+3tD4VnpDayYm8vddf+ZqCRxyS4eykCM4bbWdBv3Ryor0zTLi3DaQf+Ij6UFuNr5H8qZvtMgYuY1KqfPsr+VL3QfJ16OXSeE41I9lwe/Rgo+aGmLoC5vYXEGNRbWdNCVVwDHoKVuhYzYbHp/cq3+nPTH9jT5reIXwH/AC/OlkNETcbhj1V1BvavsY/cKsflbmoMTZY+K/DMp+BFNWEtA374MdpFJnvh7XxzUp4Vuy6Hn8xU4ytteKf7jSVfkfeg5Nzh15B7UuPUqIoT0ExUXmtTBcArP7SmSvnBPuqf9kmOVeutMPaysJMDSQd/Sj+E6L2ev61IXtZo3ZTzjcRzmsKvFmmmtm7ReL1QTXYrbpbh+qxl5Rp2s3+sB4+NReHLmW6D+wT7taOfaZZC4+4w1DhWPnlCmfGRQXhVwKXHepHwNelqvHZCMf8AJTJXB7mUW27rhHvFSOL2R95IA0YBvf8A+qFWni2BzDz6RFHcf2r2Hb9pYPpB+tZclxnq+GengqeNR8Nfk3V/0loncSp9K7cUxAdLgYQ1p5Vh3GNPjUTiq5Hb9y4G9GFFMSouIyNAV8pDDRjtIPurOqTT8o09Q3Vx5TPcCwyst1jp1iifMaE/Kk64oDECToasLAWFXD3WT8Iiq7w5lxPlVumUtUm+NjzeslFtUPPEeJRYwjqqySoJYTroDTD0ndvu91ABlKzA5ka1Xt+9mwdqNBbvR5DcVbnSPBC3aRpnMMp9RS48WmLrs3/IJZLav4KLWYVhyP1o7iFfqHy+y51oeEhriQNHj1mimCnIyHWCR76tlnun4N3S9PqhK+6/g58DRiocbjT/ALorw7GNetsG0ZZUnkQaFcBEBhyzfU1L6PHK1/tDsMCB3iTIpLakzU8aeKLlykTujmPYEpec5UMIefhRfF2BdbPmOooVg8VbTEMWHYbVfOj/AAnjFu4mYDSSNqZSMeTHq3UWVNI/6rQ13KDuri4g1sTPGaaNTXq8awacU2NbWPaFanlWUOo86U4wazb3FeuDU1myNRR7HGLu5869c391Yubnzre/YKhSYhhIgg+GsbGeRoHGMP7QrSvA16icere6dFPh8ia0rY+yPA/OPyrmEzecsxY7kyfM6mtsY5LsSSSTqSZJ0Fb4+xkYDvRG/wBSK31rnivaNKnwc0a3dDTJ9pS/rKnvsofgR9KWsTz8qa/tOX9PaPfZX/lXd0HyY+ztcwxi9+HPzon9jTxevr/djT1ih/2VsDibiH8dlh7mQ11+zxTZ4hctkx2bgj+Agx7gTSy7hiT+k/D1BugdkPY9qCQT1tqPiY9aS8Ylu2bbW2dtIuhlCw43VSDqsc9DTxxl3Nq8pVv0VlyvkLtoj+WkrGcTzpkZLYGk5RlbMPxE9+p95qUbvYpKg/8AZ9ZH365bVwAVfK0wCJBXWDOlWF0qZ7GGu3YtC4q5khZGgGusbmffVK3cTmbMoykgDsGNAAB5aCp2G4xdt6NNwERF0swjuEnQeVdPG5d99gRlS3J+KuX8Vnd1zF7YgqpA7Oo5nXxoRawN1GzNbcAHWV0j1pk4d04u4c6WrUEQAc2kd35Ue4Dxa7jrmS9Ya5afXKgyKCORLMARHjQb0J/JXXqcfgQ+L2wtwxADKDptP9Cu1zFjq7RAM221PLXlUvi/A7rX7i28PdKo7KFADEAHYkSCfGTUfjnBsRaso9yy9tEMdoDTNtMa799KtDpSf++Cr6iSk3FbM24vimN0DOhLqvsd42EnnWgWDkuAk7anbnp3UHwr5XVh+FgfcQacOP4UgC7p2xMdxMmulDTSXg5Z3ktsMcFIbB3vGPnVbjs3PJvrTzwi81vAXrkjRhvtuPzpfx9y3cMFQrACCBuaGJOMnts0TyNSXzZtwbCtfw1+2gJZWDKB3/0KtTBO+JwuF6zsXFVcysYOZYBPwqtOhvGvul9gUzi6Mu8QZ0PjTFjOMXDdIChVXUE6zSyi1J+G7DGmltutgT0+wCWMXdyEENkuafhJ3HvE+tcbAgse8g++g97GK5vNcJNxiCDyJ5z6RU2xehe7sA+412WLas9Xoci/R4Rvw8ZU8et+tD8O2W+45EsPfNSHvhXmfxzHgaiBR1pY7STprzpsae7fc1xljtb7p0SsXcGS2+YZgdRzrNjHm3mUbZiffULF4V4DhTl2n1orgOBvdQPtPKmUYpbsjDqcePJOM9t9gN1dRykmiPVGuS4fWnWQ8CWNkC4sMR41l0iit7AgnNrPw86j38NpTRzJiPE0QQNJrUUewHRjEuufqWK7gaAnxiZ+FQ34Zca6ECxJg/u980F1GNtpNbHelOrogOpLGBPOtrKwwn+udHOOWVt3ByAUD3aULuWCxzKCB48/SjDKpqwyxOLruRVtkyYMd9duIJlYDuURpGmp+ddxaYxM71L6T4eDbYc1+X/uh6q1qP1OeP2NgSulmyzbKT5Cde7zrUrUnBYl7fsmJM+tVk3WxOK33IybitrNpnlVBJ0293pvRvh7y2sdoyeyJJ2nbwqX0je5aCvbMBhDEKvLbl4moPqPdorkt6Pt1WB+kDzemAIRFgbdlFX6Vm1wu5ekorEgAkAEkZiAJ94qFccsSWMk70R4VjrloyrsvaU6E/hM8qd3GKESUpMG4tILK2jDQg6EEaEEcjTX9oozDDuNQbK6/wDfrRd8V17XGL9YAWyMddNxEis9BcTYS+TiWXJkIXrBKBpB7oEjnUI9SpSqqorLBpjYs/Z85XG2jMAllM6e0rAD3xVi4Xozb++/eVnOJOWDlLNoSfISPWlXiy2xfudXBQu2UrtE6RHKl3pDirqXtLtxZQbXGGmo5Hwowza56Tni0wsuJ8Mqi67rlItuIG0GW5+Me6qnxfHCztdW1lDKG7QDaiFJEjuoLxK44Yr1juvi7MCPU61GYRHiP6FV9NSW/clrcX9B36PcbTXrCuYssQoEaCoXTvHLfNpshXKGWTJnVT3ClSTWWzAkGZ5g1OHTKE3JPnsNLNqjTRa3Qw4f7vbuC0hcp2oUEyujGTzo6/EIKvlygEDcbc9hHhVNYLjN+ymS3cKiSdAJ131iYrot13v2xiLjqucBmaSVBg5obzBrHLocrbWpabtd2VWeFXW9Fk8G4uExWMtllGW7mUsw9l1B37pB99Y6X8TtXsLdtm7aLFTABnUdoczzFI32iYpLuMa5bcOpRAWU6FlENt6UNstaW8puM121+IrKtqvIHuPviqS6C5a9TStOvlCrOqqiCW/dE068Xvs+GsmPwKTpsSKTnt7lZKjc9wJ0nupqs3OswbAjW2FjyOUfnW2dE4XuGej+EttgbqXHVVYgy224j4ihfEeAKiXLqXLVxQCxAaDA3iimFa0cPcW4xS2FQMRoRr+dDsTwrCvbc28VspMNlO2u41rz803HIt2vta58k8uRwmt/wLHCm6zE2yFABYQomNPOrF47gVTDtcPtEe7nVe9E2UYlC2wkn3U79JOL2nwxRXGYiFHPWr5371FfBpxP2uTK2WTJ5xRbpA1sNbFk6dWA+4BbcjWomG4bcLgCPMHTTWrV6KYO2+CtZ1VuxJkDXej1XURxU0rBiUpJq6Kisqc4nn37R+VMfRHD9ZeZeyZGn9GhPG8mZSmgM7chJj4VN6GYpbV7OdoM+Qq/6oahYtxnVjDxC7k623CEIBMQSGImO6tME46tNeXfSrj8Yzm7cBjPcYny5VtZ4mVUDwqLwt7oosifJ//Z;" vertex="1" parent="1">
          <mxGeometry x="570" y="580" width="217.25" height="110" as="geometry" />
        </mxCell>
      </root>
    </mxGraphModel>
  </diagram>
</mxfile>
